<svg xmlns="http://www.w3.org/2000/svg" xmlns:xlink="http://www.w3.org/1999/xlink" version="1.1" viewBox="0 0 3254 2620" style="background: #ffffff"><defs joint-selector="defs"></defs><g  joint-selector="layers" transform="matrix(1,0,0,1,0,0)"><g ></g><g ><g   id="j_44"  transform="translate(20,2575)"><g id="v-520"><text  id="v-521" font-size="22px" xml:space="preserve" y="0.8em" font-weight="normal" text-anchor="start" fill="#aaaaaa" pointer-events="none" font-family="Open Sans"><tspan  dy="0">Thursday, 9 March 2023 at 14:27 Greenwich Mean Time</tspan></text></g></g><g   id="j_43"  transform="translate(20,2531)"><g id="v-518"><text  id="v-519" font-size="36px" xml:space="preserve" y="0.8em" font-weight="normal" text-anchor="start" fill="#000000" pointer-events="none" font-family="Open Sans"><tspan  dy="0">[Container] LPA ID Service</tspan></text></g></g><g   id="j_27"  transform="translate(309,788)" style=""><g id="v-302"><rect  id="v-303" width="1990" height="1611" rx="0" ry="0" fill="#ffffff" stroke="#0f5eaa" stroke-width="1" stroke-dasharray="20,20" pointer-events="none"></rect><text  id="v-304" font-size="24px" xml:space="preserve" y="1572" font-weight="normal" fill="#0f5eaa" text-anchor="start" pointer-events="visible" font-family="Open Sans" transform="matrix(1,0,0,1,15,0)"><tspan  dy="0">LPA ID Service</tspan></text><text  id="v-305" font-size="17px" xml:space="preserve" y="1596" font-weight="normal" fill="#0f5eaa" text-anchor="start" pointer-events="visible" font-family="Open Sans" transform="matrix(1,0,0,1,15,0)"><tspan  dy="0">[Software System]</tspan></text><image  id="v-306" pointer-events="visible"></image></g></g><g   id="j_28"  transform="translate(1829,808)" style=""><g  id="v-313" style="opacity: 1;"><rect  id="v-314" rx="20" ry="20" stroke="#78a8d8" stroke-width="2" pointer-events="visiblePainted" fill="#85bbf0" width="450" height="300" style="fill: rgb(133, 187, 240); stroke: rgb(120, 168, 216);"></rect><text  id="v-315" font-size="34" xml:space="preserve" y="0.8em" font-weight="bold" text-anchor="middle" pointer-events="visible" font-family="Open Sans" fill="#000000" transform="matrix(1,0,0,1,225,85.5999984741211)" style="fill: rgb(0, 0, 0);"><tspan  dy="0">API Gateway</tspan></text><text  id="v-316" font-size="17" xml:space="preserve" y="0.8em" text-anchor="middle" font-family="Open Sans" fill="#000000" transform="matrix(1,0,0,1,225,126.4000015258789)" style="fill: rgb(0, 0, 0);"><tspan  dy="0">[Container: AWS API Gateway v2, OpenAPI]</tspan></text><text  id="v-317" font-size="24" xml:space="preserve" y="0.8em" text-anchor="middle" font-family="Open Sans" fill="#000000" transform="matrix(1,0,0,1,225,156.8000030517578)" style="fill: rgb(0, 0, 0);"><tspan  dy="0">Provides a REST API for</tspan><tspan dy="1.2em" x="0" >communication to the service.</tspan></text><g  id="v-318" color="#000000" opacity="0.75" transform="matrix(1,0,0,1,222.5,224.39999389648438)" style="fill: rgb(0, 0, 0);" display="none"><g ></g><g ></g><g ></g><g ></g></g><image  id="v-319"></image></g></g><g   id="j_29"  transform="translate(1079,1408)" style=""><g  id="v-323" style="opacity: 1;"><rect  id="v-324" rx="20" ry="20" stroke="#78a8d8" stroke-width="2" pointer-events="visiblePainted" fill="#85bbf0" width="450" height="300" style="fill: rgb(133, 187, 240); stroke: rgb(120, 168, 216);"></rect><text  id="v-325" font-size="34" xml:space="preserve" y="0.8em" font-weight="bold" text-anchor="middle" pointer-events="visible" font-family="Open Sans" fill="#000000" transform="matrix(1,0,0,1,225,85.5999984741211)" style="fill: rgb(0, 0, 0);"><tspan  dy="0">Lambda</tspan></text><text  id="v-326" font-size="17" xml:space="preserve" y="0.8em" text-anchor="middle" font-family="Open Sans" fill="#000000" transform="matrix(1,0,0,1,225,126.4000015258789)" style="fill: rgb(0, 0, 0);"><tspan  dy="0">[Container: AWS Lambda, Go]</tspan></text><text  id="v-327" font-size="24" xml:space="preserve" y="0.8em" text-anchor="middle" font-family="Open Sans" fill="#000000" transform="matrix(1,0,0,1,225,156.8000030517578)" style="fill: rgb(0, 0, 0);"><tspan  dy="0">Executes code for generating and</tspan><tspan dy="1.2em" x="0" >returning new LPA ID</tspan></text><g  id="v-328" color="#000000" opacity="0.75" transform="matrix(1,0,0,1,222.5,224.39999389648438)" style="fill: rgb(0, 0, 0);" display="none"><g ></g><g ></g><g ></g><g ></g></g><image  id="v-329"></image></g></g><g   id="j_30"  transform="translate(1079,2008)" style=""><g  id="v-330" style="opacity: 1;"><path  d="M 0,30 a 225,30 0,0,0 450 0 a 225,30 0,0,0 -450 0 l 0,240 a 225,30 0,0,0 450 0 l 0,-240" id="v-331" stroke="#3c7fc0" stroke-width="2" pointer-events="visiblePainted" fill="#438dd5" style="fill: rgb(67, 141, 213); stroke: rgb(60, 127, 192);"></path><rect  id="v-332" stroke-width="0" pointer-events="visiblePainted" fill="none" stroke="none" width="450" height="270" x="0" y="30"></rect><text  id="v-333" font-size="34" xml:space="preserve" y="0.8em" font-weight="bold" text-anchor="middle" pointer-events="visible" font-family="Open Sans" fill="#ffffff" transform="matrix(1,0,0,1,225,130)" style="fill: rgb(255, 255, 255);"><tspan  dy="0">Database</tspan></text><text  id="v-334" font-size="17" xml:space="preserve" y="0.8em" text-anchor="middle" font-family="Open Sans" fill="#ffffff" transform="matrix(1,0,0,1,225,170.8000030517578)" style="fill: rgb(255, 255, 255);"><tspan  dy="0">[Container: DynamoDB]</tspan></text><text  id="v-335" font-size="24" xml:space="preserve" y="0.8em" text-anchor="middle" font-family="Open Sans" fill="#ffffff" transform="matrix(1,0,0,1,225,201.1999969482422)" style="fill: rgb(255, 255, 255);"><tspan  dy="0">Stores LPA IDs.</tspan></text><g  id="v-336" font-weight="normal" text-anchor="middle" color="#ffffff" opacity="0.75" transform="matrix(1,0,0,1,222.5,240)" style="fill: rgb(255, 255, 255);" display="none"><g ></g><g ></g><g ></g><g ></g></g><image  id="v-337"></image></g></g><g   id="j_31"  transform="translate(1079,208)" style=""><g  id="v-341" style="opacity: 1;"><rect  id="v-342" rx="20" ry="20" stroke="#8a8a8a" stroke-width="2" pointer-events="visiblePainted" fill="#999999" width="450" height="300" style="fill: rgb(153, 153, 153); stroke: rgb(138, 138, 138);"></rect><text  id="v-343" font-size="34" xml:space="preserve" y="0.8em" font-weight="bold" text-anchor="middle" pointer-events="visible" font-family="Open Sans" fill="#ffffff" transform="matrix(1,0,0,1,225,100)" style="fill: rgb(255, 255, 255);"><tspan  dy="0">LPA Case Management</tspan></text><text  id="v-344" font-size="17" xml:space="preserve" y="0.8em" text-anchor="middle" font-family="Open Sans" fill="#ffffff" transform="matrix(1,0,0,1,225,140.8000030517578)" style="fill: rgb(255, 255, 255);"><tspan  dy="0">[Software System]</tspan></text><text  id="v-345" font-size="24" xml:space="preserve" y="0.8em" text-anchor="middle" font-family="Open Sans" fill="#ffffff" transform="matrix(1,0,0,1,225,171.1999969482422)" style="fill: rgb(255, 255, 255);"><tspan  dy="0">PKA Sirius.</tspan></text><g  id="v-346" color="#ffffff" opacity="0.75" transform="matrix(1,0,0,1,222.5,210)" style="fill: rgb(255, 255, 255);" display="none"><g ></g><g ></g><g ></g><g ></g></g><image  id="v-347"></image></g></g><g   id="j_32"  transform="translate(1829,208)" style=""><g  id="v-354" style="opacity: 1;"><rect  id="v-355" rx="20" ry="20" stroke="#8a8a8a" stroke-width="2" pointer-events="visiblePainted" fill="#999999" width="450" height="300" style="fill: rgb(153, 153, 153); stroke: rgb(138, 138, 138);"></rect><text  id="v-356" font-size="34" xml:space="preserve" y="0.8em" font-weight="bold" text-anchor="middle" pointer-events="visible" font-family="Open Sans" fill="#ffffff" transform="matrix(1,0,0,1,225,65.19999694824219)" style="fill: rgb(255, 255, 255);"><tspan  dy="0">Make and Register an</tspan><tspan dy="1.2em" x="0" >LPA</tspan></text><text  id="v-357" font-size="17" xml:space="preserve" y="0.8em" text-anchor="middle" font-family="Open Sans" fill="#ffffff" transform="matrix(1,0,0,1,225,146.8000030517578)" style="fill: rgb(255, 255, 255);"><tspan  dy="0">[Software System]</tspan></text><text  id="v-358" font-size="24" xml:space="preserve" y="0.8em" text-anchor="middle" font-family="Open Sans" fill="#ffffff" transform="matrix(1,0,0,1,225,177.1999969482422)" style="fill: rgb(255, 255, 255);"><tspan  dy="0">Manages Online submissions of</tspan><tspan dy="1.2em" x="0" >LPAs.</tspan></text><g  id="v-359" color="#ffffff" opacity="0.75" transform="matrix(1,0,0,1,222.5,244.8000030517578)" style="fill: rgb(255, 255, 255);" display="none"><g ></g><g ></g><g ></g><g ></g></g><image  id="v-360"></image></g></g><g   id="j_33"  transform="translate(2579,208)" style=""><g  id="v-364" style="opacity: 1;"><rect  id="v-365" rx="20" ry="20" stroke="#8a8a8a" stroke-width="2" pointer-events="visiblePainted" fill="#999999" width="450" height="300" style="fill: rgb(153, 153, 153); stroke: rgb(138, 138, 138);"></rect><text  id="v-366" font-size="34" xml:space="preserve" y="0.8em" font-weight="bold" text-anchor="middle" pointer-events="visible" font-family="Open Sans" fill="#ffffff" transform="matrix(1,0,0,1,225,85.5999984741211)" style="fill: rgb(255, 255, 255);"><tspan  dy="0">LPA Public API</tspan></text><text  id="v-367" font-size="17" xml:space="preserve" y="0.8em" text-anchor="middle" font-family="Open Sans" fill="#ffffff" transform="matrix(1,0,0,1,225,126.4000015258789)" style="fill: rgb(255, 255, 255);"><tspan  dy="0">[Software System]</tspan></text><text  id="v-368" font-size="24" xml:space="preserve" y="0.8em" text-anchor="middle" font-family="Open Sans" fill="#ffffff" transform="matrix(1,0,0,1,225,156.8000030517578)" style="fill: rgb(255, 255, 255);"><tspan  dy="0">API Integration for external</tspan><tspan dy="1.2em" x="0" >integration.</tspan></text><g  id="v-369" color="#ffffff" opacity="0.75" transform="matrix(1,0,0,1,222.5,224.39999389648438)" style="fill: rgb(255, 255, 255);" display="none"><g ></g><g ></g><g ></g><g ></g></g><image  id="v-370"></image></g></g><g   id="j_34"  transform="translate(1829,1408)" style=""><g  id="v-374" style="opacity: 1;"><rect  id="v-375" rx="20" ry="20" stroke="#78a8d8" stroke-width="2" pointer-events="visiblePainted" fill="#85bbf0" width="450" height="300" style="fill: rgb(133, 187, 240); stroke: rgb(120, 168, 216);"></rect><text  id="v-376" font-size="34" xml:space="preserve" y="0.8em" font-weight="bold" text-anchor="middle" pointer-events="visible" font-family="Open Sans" fill="#000000" transform="matrix(1,0,0,1,225,85.5999984741211)" style="fill: rgb(0, 0, 0);"><tspan  dy="0">IAM</tspan></text><text  id="v-377" font-size="17" xml:space="preserve" y="0.8em" text-anchor="middle" font-family="Open Sans" fill="#000000" transform="matrix(1,0,0,1,225,126.4000015258789)" style="fill: rgb(0, 0, 0);"><tspan  dy="0">[Container: AWS IAM]</tspan></text><text  id="v-378" font-size="24" xml:space="preserve" y="0.8em" text-anchor="middle" font-family="Open Sans" fill="#000000" transform="matrix(1,0,0,1,225,156.8000030517578)" style="fill: rgb(0, 0, 0);"><tspan  dy="0">Manages permissions to API</tspan><tspan dy="1.2em" x="0" >Gateway</tspan></text><g  id="v-379" color="#000000" opacity="0.75" transform="matrix(1,0,0,1,222.5,224.39999389648438)" style="fill: rgb(0, 0, 0);" display="none"><g ></g><g ></g><g ></g><g ></g></g><image  id="v-380"></image></g></g><g   id="j_35"  transform="translate(1079,808)" style=""><g  id="v-390" style="opacity: 1;"><rect  id="v-391" rx="20" ry="20" stroke="#78a8d8" stroke-width="2" pointer-events="visiblePainted" fill="#85bbf0" width="450" height="300" style="fill: rgb(133, 187, 240); stroke: rgb(120, 168, 216);"></rect><text  id="v-392" font-size="34" xml:space="preserve" y="0.8em" font-weight="bold" text-anchor="middle" pointer-events="visible" font-family="Open Sans" fill="#000000" transform="matrix(1,0,0,1,225,85.5999984741211)" style="fill: rgb(0, 0, 0);"><tspan  dy="0">Certificate Manager</tspan></text><text  id="v-393" font-size="17" xml:space="preserve" y="0.8em" text-anchor="middle" font-family="Open Sans" fill="#000000" transform="matrix(1,0,0,1,225,126.4000015258789)" style="fill: rgb(0, 0, 0);"><tspan  dy="0">[Container: AWS Certificate Manager]</tspan></text><text  id="v-394" font-size="24" xml:space="preserve" y="0.8em" text-anchor="middle" font-family="Open Sans" fill="#000000" transform="matrix(1,0,0,1,225,156.8000030517578)" style="fill: rgb(0, 0, 0);"><tspan  dy="0">Generate a valid cert for SSL</tspan><tspan dy="1.2em" x="0" >connectivity to the API</tspan></text><g  id="v-395" color="#000000" opacity="0.75" transform="matrix(1,0,0,1,222.5,224.39999389648438)" style="fill: rgb(0, 0, 0);" display="none"><g ></g><g ></g><g ></g><g ></g></g><image  id="v-396"></image></g></g><g   id="j_36"  transform="translate(329,808)" style=""><g  id="v-400" style="opacity: 1;"><rect  id="v-401" rx="20" ry="20" stroke="#78a8d8" stroke-width="2" pointer-events="visiblePainted" fill="#85bbf0" width="450" height="300" style="fill: rgb(133, 187, 240); stroke: rgb(120, 168, 216);"></rect><text  id="v-402" font-size="34" xml:space="preserve" y="0.8em" font-weight="bold" text-anchor="middle" pointer-events="visible" font-family="Open Sans" fill="#000000" transform="matrix(1,0,0,1,225,85.5999984741211)" style="fill: rgb(0, 0, 0);"><tspan  dy="0">DNS</tspan></text><text  id="v-403" font-size="17" xml:space="preserve" y="0.8em" text-anchor="middle" font-family="Open Sans" fill="#000000" transform="matrix(1,0,0,1,225,126.4000015258789)" style="fill: rgb(0, 0, 0);"><tspan  dy="0">[Container: AWS Route 53]</tspan></text><text  id="v-404" font-size="24" xml:space="preserve" y="0.8em" text-anchor="middle" font-family="Open Sans" fill="#000000" transform="matrix(1,0,0,1,225,156.8000030517578)" style="fill: rgb(0, 0, 0);"><tspan  dy="0">Generate a friendly DNS Name for</tspan><tspan dy="1.2em" x="0" >the API</tspan></text><g  id="v-405" color="#000000" opacity="0.75" transform="matrix(1,0,0,1,222.5,224.39999389648438)" style="fill: rgb(0, 0, 0);" display="none"><g ></g><g ></g><g ></g><g ></g></g><image  id="v-406"></image></g></g><g   id="j_37" ><path  stroke="#707070" d="M 2054 1108 L 2054 1408" id="v-419" stroke-width="2" stroke-dasharray="30 30" fill="none" style="opacity: 1;"></path><path  fill="black" stroke="black" d="M 0 0 0 0" transform="matrix(6.123234262925839e-17,1,-1,6.123234262925839e-17,2054,1108)"></path><path  fill="#707070" stroke="#707070" d="M 20 0 L 0 10 L 20 20 z" id="v-421" transform="matrix(-1.8369701465288538e-16,-1,1,-1.8369701465288538e-16,2044,1408)" style="opacity: 1;"></path><path  d="M 2054 1108 L 2054 1408" id="v-420" fill="none" style="cursor: auto; pointer-events: visiblepainted;"></path><g ><g id="v-413"  label-idx="0" cursor="move" transform="matrix(1,0,0,1,2054,1258)" style="cursor: default; opacity: 1;"><rect joint-selector="rect" id="v-416" fill="#ffffff" rx="3" ry="3" stroke="#ffffff" stroke-width="20px" pointer-events="none" width="105.83998107910156" height="65.16592407226562" transform="matrix(1,0,0,1,-52.900001525878906,-32.599998474121094)"></rect><text joint-selector="text" id="v-415" font-size="24px" xml:space="preserve" y="0.8em" fill="#707070" text-anchor="middle" pointer-events="none" font-family="Open Sans" font-weight="normal" transform="matrix(1,0,0,1,0,-24.5)"><tspan  dy="0">Validates</tspan><tspan dy="1.2em" x="0" >requests</tspan></text></g><g id="v-414"  label-idx="1" cursor="move" transform="matrix(1,0,0,1,2044,1296.800048828125)" style="cursor: default; opacity: 1;"><rect joint-selector="rect" id="v-418" fill="#ffffff" rx="3" ry="3"  width="0" height="0" transform="matrix(1,0,0,1,0,0)" display="none"></rect><text joint-selector="text" id="v-417" fill="#000000" font-size="14" text-anchor="middle" pointer-events="none"></text></g></g><g  display="none" style="display: none;"></g><g  id="v-423" display="none"><g  id="v-411"><path  end="source" d="M 26 0 L 0 13 L 26 26 z"></path></g><g  id="v-412"><path  end="target" d="M 26 0 L 0 13 L 26 26 z"></path></g></g><g  id="v-422" display="none"><g  id="v-410" transform="translate(2054, 1148) "><g  event="remove"><circle r="11"></circle><path transform="scale(.8) translate(-16, -16)" d="M24.778,21.419 19.276,15.917 24.777,10.415 21.949,7.585 16.447,13.087 10.945,7.585 8.117,10.415 13.618,15.917 8.116,21.419 10.946,24.248 16.447,18.746 21.948,24.248z"></path><title>Remove link.</title></g><g  event="link:options"><circle r="11" transform="translate(25)"></circle><path fill="white" transform="scale(.55) translate(29, -16)" d="M31.229,17.736c0.064-0.571,0.104-1.148,0.104-1.736s-0.04-1.166-0.104-1.737l-4.377-1.557c-0.218-0.716-0.504-1.401-0.851-2.05l1.993-4.192c-0.725-0.91-1.549-1.734-2.458-2.459l-4.193,1.994c-0.647-0.347-1.334-0.632-2.049-0.849l-1.558-4.378C17.165,0.708,16.588,0.667,16,0.667s-1.166,0.041-1.737,0.105L12.707,5.15c-0.716,0.217-1.401,0.502-2.05,0.849L6.464,4.005C5.554,4.73,4.73,5.554,4.005,6.464l1.994,4.192c-0.347,0.648-0.632,1.334-0.849,2.05l-4.378,1.557C0.708,14.834,0.667,15.412,0.667,16s0.041,1.165,0.105,1.736l4.378,1.558c0.217,0.715,0.502,1.401,0.849,2.049l-1.994,4.193c0.725,0.909,1.549,1.733,2.459,2.458l4.192-1.993c0.648,0.347,1.334,0.633,2.05,0.851l1.557,4.377c0.571,0.064,1.148,0.104,1.737,0.104c0.588,0,1.165-0.04,1.736-0.104l1.558-4.377c0.715-0.218,1.399-0.504,2.049-0.851l4.193,1.993c0.909-0.725,1.733-1.549,2.458-2.458l-1.993-4.193c0.347-0.647,0.633-1.334,0.851-2.049L31.229,17.736zM16,20.871c-2.69,0-4.872-2.182-4.872-4.871c0-2.69,2.182-4.872,4.872-4.872c2.689,0,4.871,2.182,4.871,4.872C20.871,18.689,18.689,20.871,16,20.871z"></path><title>Link options.</title></g></g></g></g><g   id="j_38" ><path  stroke="#707070" d="M 1867 1108 L 1492 1408" id="v-436" stroke-width="2" stroke-dasharray="30 30" fill="none" style="opacity: 1;"></path><path  fill="black" stroke="black" d="M 0 0 0 0" transform="matrix(-0.7808688282966614,0.6246950030326843,-0.6246950030326843,-0.7808688282966614,1866.5,1108)"></path><path  fill="#707070" stroke="#707070" d="M 20 0 L 0 10 L 20 20 z" id="v-438" transform="matrix(0.780868649482727,-0.6246952414512634,0.6246952414512634,0.780868649482727,1485.2530517578125,1400.1912841796875)" style="opacity: 1;"></path><path  d="M 1867 1108 L 1492 1408" id="v-437" fill="none" style="cursor: auto; pointer-events: visiblepainted;"></path><g ><g id="v-430"  label-idx="0" cursor="move" transform="matrix(1,0,0,1,1679.5,1258)" style="cursor: default; opacity: 1;"><rect joint-selector="rect" id="v-433" fill="#ffffff" rx="3" ry="3" stroke="#ffffff" stroke-width="20px" pointer-events="none" width="180.4658966064453" height="122.76592254638672" transform="matrix(1,0,0,1,-90.19999694824219,-61.400001525878906)"></rect><text joint-selector="text" id="v-432" font-size="24px" xml:space="preserve" y="0.8em" fill="#707070" text-anchor="middle" pointer-events="none" font-family="Open Sans" font-weight="normal" transform="matrix(1,0,0,1,0,-53.29999923706055)"><tspan  dy="0">Forwards</tspan><tspan dy="1.2em" x="0" >requests to and</tspan><tspan dy="1.2em" x="0" >Returns</tspan><tspan dy="1.2em" x="0" >responses from</tspan></text></g><g id="v-431"  label-idx="1" cursor="move" transform="matrix(1,0,0,1,1669.5,1325.5999755859375)" style="cursor: default; opacity: 1;"><rect joint-selector="rect" id="v-435" fill="#ffffff" rx="3" ry="3"  width="0" height="0" transform="matrix(1,0,0,1,0,0)" display="none"></rect><text joint-selector="text" id="v-434" fill="#000000" font-size="14" text-anchor="middle" pointer-events="none"></text></g></g><g  display="none" style="display: none;"></g><g  id="v-440" display="none"><g  id="v-428"><path  end="source" d="M 26 0 L 0 13 L 26 26 z"></path></g><g  id="v-429"><path  end="target" d="M 26 0 L 0 13 L 26 26 z"></path></g></g><g  id="v-439" display="none"><g  id="v-427" transform="translate(1835.7652476222788, 1132.9878019021771) "><g  event="remove"><circle r="11"></circle><path transform="scale(.8) translate(-16, -16)" d="M24.778,21.419 19.276,15.917 24.777,10.415 21.949,7.585 16.447,13.087 10.945,7.585 8.117,10.415 13.618,15.917 8.116,21.419 10.946,24.248 16.447,18.746 21.948,24.248z"></path><title>Remove link.</title></g><g  event="link:options"><circle r="11" transform="translate(25)"></circle><path fill="white" transform="scale(.55) translate(29, -16)" d="M31.229,17.736c0.064-0.571,0.104-1.148,0.104-1.736s-0.04-1.166-0.104-1.737l-4.377-1.557c-0.218-0.716-0.504-1.401-0.851-2.05l1.993-4.192c-0.725-0.91-1.549-1.734-2.458-2.459l-4.193,1.994c-0.647-0.347-1.334-0.632-2.049-0.849l-1.558-4.378C17.165,0.708,16.588,0.667,16,0.667s-1.166,0.041-1.737,0.105L12.707,5.15c-0.716,0.217-1.401,0.502-2.05,0.849L6.464,4.005C5.554,4.73,4.73,5.554,4.005,6.464l1.994,4.192c-0.347,0.648-0.632,1.334-0.849,2.05l-4.378,1.557C0.708,14.834,0.667,15.412,0.667,16s0.041,1.165,0.105,1.736l4.378,1.558c0.217,0.715,0.502,1.401,0.849,2.049l-1.994,4.193c0.725,0.909,1.549,1.733,2.459,2.458l4.192-1.993c0.648,0.347,1.334,0.633,2.05,0.851l1.557,4.377c0.571,0.064,1.148,0.104,1.737,0.104c0.588,0,1.165-0.04,1.736-0.104l1.558-4.377c0.715-0.218,1.399-0.504,2.049-0.851l4.193,1.993c0.909-0.725,1.733-1.549,2.458-2.458l-1.993-4.193c0.347-0.647,0.633-1.334,0.851-2.049L31.229,17.736zM16,20.871c-2.69,0-4.872-2.182-4.872-4.871c0-2.69,2.182-4.872,4.872-4.872c2.689,0,4.871,2.182,4.871,4.872C20.871,18.689,18.689,20.871,16,20.871z"></path><title>Link options.</title></g></g></g></g><g   id="j_39" ><path  stroke="#707070" d="M 2617 508 L 2242 808" id="v-453" stroke-width="2" stroke-dasharray="30 30" fill="none" style="opacity: 1;"></path><path  fill="black" stroke="black" d="M 0 0 0 0" transform="matrix(-0.7808688282966614,0.6246950030326843,-0.6246950030326843,-0.7808688282966614,2616.5,508)"></path><path  fill="#707070" stroke="#707070" d="M 20 0 L 0 10 L 20 20 z" id="v-455" transform="matrix(0.780868649482727,-0.6246952414512634,0.6246952414512634,0.780868649482727,2235.2529296875,800.1913452148438)" style="opacity: 1;"></path><path  d="M 2617 508 L 2242 808" id="v-454" fill="none" style="cursor: auto; pointer-events: visiblepainted;"></path><g ><g id="v-447"  label-idx="0" cursor="move" transform="matrix(1,0,0,1,2429.5,658)" style="cursor: default; opacity: 1;"><rect joint-selector="rect" id="v-450" fill="#ffffff" rx="3" ry="3" stroke="#ffffff" stroke-width="20px" pointer-events="none" width="180.9204559326172" height="65.16592407226562" transform="matrix(1,0,0,1,-90.5,-32.599998474121094)"></rect><text joint-selector="text" id="v-449" font-size="24px" xml:space="preserve" y="0.8em" fill="#707070" text-anchor="middle" pointer-events="none" font-family="Open Sans" font-weight="normal" transform="matrix(1,0,0,1,0,-24.5)"><tspan  dy="0">Makes requests</tspan><tspan dy="1.2em" x="0" >to</tspan></text></g><g id="v-448"  label-idx="1" cursor="move" transform="matrix(1,0,0,1,2419.5,696.7999877929688)" style="cursor: default; opacity: 1;"><rect joint-selector="rect" id="v-452" fill="#ffffff" rx="3" ry="3"  width="0" height="0" transform="matrix(1,0,0,1,0,0)" display="none"></rect><text joint-selector="text" id="v-451" fill="#000000" font-size="14" text-anchor="middle" pointer-events="none"></text></g></g><g  display="none" style="display: none;"></g><g  id="v-457" display="none"><g  id="v-445"><path  end="source" d="M 26 0 L 0 13 L 26 26 z"></path></g><g  id="v-446"><path  end="target" d="M 26 0 L 0 13 L 26 26 z"></path></g></g><g  id="v-456" display="none"><g  id="v-444" transform="translate(2585.765247622279, 532.987801902177) "><g  event="remove"><circle r="11"></circle><path transform="scale(.8) translate(-16, -16)" d="M24.778,21.419 19.276,15.917 24.777,10.415 21.949,7.585 16.447,13.087 10.945,7.585 8.117,10.415 13.618,15.917 8.116,21.419 10.946,24.248 16.447,18.746 21.948,24.248z"></path><title>Remove link.</title></g><g  event="link:options"><circle r="11" transform="translate(25)"></circle><path fill="white" transform="scale(.55) translate(29, -16)" d="M31.229,17.736c0.064-0.571,0.104-1.148,0.104-1.736s-0.04-1.166-0.104-1.737l-4.377-1.557c-0.218-0.716-0.504-1.401-0.851-2.05l1.993-4.192c-0.725-0.91-1.549-1.734-2.458-2.459l-4.193,1.994c-0.647-0.347-1.334-0.632-2.049-0.849l-1.558-4.378C17.165,0.708,16.588,0.667,16,0.667s-1.166,0.041-1.737,0.105L12.707,5.15c-0.716,0.217-1.401,0.502-2.05,0.849L6.464,4.005C5.554,4.73,4.73,5.554,4.005,6.464l1.994,4.192c-0.347,0.648-0.632,1.334-0.849,2.05l-4.378,1.557C0.708,14.834,0.667,15.412,0.667,16s0.041,1.165,0.105,1.736l4.378,1.558c0.217,0.715,0.502,1.401,0.849,2.049l-1.994,4.193c0.725,0.909,1.549,1.733,2.459,2.458l4.192-1.993c0.648,0.347,1.334,0.633,2.05,0.851l1.557,4.377c0.571,0.064,1.148,0.104,1.737,0.104c0.588,0,1.165-0.04,1.736-0.104l1.558-4.377c0.715-0.218,1.399-0.504,2.049-0.851l4.193,1.993c0.909-0.725,1.733-1.549,2.458-2.458l-1.993-4.193c0.347-0.647,0.633-1.334,0.851-2.049L31.229,17.736zM16,20.871c-2.69,0-4.872-2.182-4.872-4.871c0-2.69,2.182-4.872,4.872-4.872c2.689,0,4.871,2.182,4.871,4.872C20.871,18.689,18.689,20.871,16,20.871z"></path><title>Link options.</title></g></g></g></g><g   id="j_40" ><path  stroke="#707070" d="M 2054 508 L 2054 808" id="v-470" stroke-width="2" stroke-dasharray="30 30" fill="none" style="opacity: 1;"></path><path  fill="black" stroke="black" d="M 0 0 0 0" transform="matrix(6.123234262925839e-17,1,-1,6.123234262925839e-17,2054,508)"></path><path  fill="#707070" stroke="#707070" d="M 20 0 L 0 10 L 20 20 z" id="v-472" transform="matrix(-1.8369701465288538e-16,-1,1,-1.8369701465288538e-16,2044,808)" style="opacity: 1;"></path><path  d="M 2054 508 L 2054 808" id="v-471" fill="none" style="cursor: auto; pointer-events: visiblepainted;"></path><g ><g id="v-464"  label-idx="0" cursor="move" transform="matrix(1,0,0,1,2054,658)" style="cursor: default; opacity: 1;"><rect joint-selector="rect" id="v-467" fill="#ffffff" rx="3" ry="3" stroke="#ffffff" stroke-width="20px" pointer-events="none" width="180.9204559326172" height="65.16592407226562" transform="matrix(1,0,0,1,-90.5,-32.599998474121094)"></rect><text joint-selector="text" id="v-466" font-size="24px" xml:space="preserve" y="0.8em" fill="#707070" text-anchor="middle" pointer-events="none" font-family="Open Sans" font-weight="normal" transform="matrix(1,0,0,1,0,-24.5)"><tspan  dy="0">Makes requests</tspan><tspan dy="1.2em" x="0" >to</tspan></text></g><g id="v-465"  label-idx="1" cursor="move" transform="matrix(1,0,0,1,2044,696.7999877929688)" style="cursor: default; opacity: 1;"><rect joint-selector="rect" id="v-469" fill="#ffffff" rx="3" ry="3"  width="0" height="0" transform="matrix(1,0,0,1,0,0)" display="none"></rect><text joint-selector="text" id="v-468" fill="#000000" font-size="14" text-anchor="middle" pointer-events="none"></text></g></g><g  display="none" style="display: none;"></g><g  id="v-474" display="none"><g  id="v-462"><path  end="source" d="M 26 0 L 0 13 L 26 26 z"></path></g><g  id="v-463"><path  end="target" d="M 26 0 L 0 13 L 26 26 z"></path></g></g><g  id="v-473" display="none"><g  id="v-461" transform="translate(2054, 548) "><g  event="remove"><circle r="11"></circle><path transform="scale(.8) translate(-16, -16)" d="M24.778,21.419 19.276,15.917 24.777,10.415 21.949,7.585 16.447,13.087 10.945,7.585 8.117,10.415 13.618,15.917 8.116,21.419 10.946,24.248 16.447,18.746 21.948,24.248z"></path><title>Remove link.</title></g><g  event="link:options"><circle r="11" transform="translate(25)"></circle><path fill="white" transform="scale(.55) translate(29, -16)" d="M31.229,17.736c0.064-0.571,0.104-1.148,0.104-1.736s-0.04-1.166-0.104-1.737l-4.377-1.557c-0.218-0.716-0.504-1.401-0.851-2.05l1.993-4.192c-0.725-0.91-1.549-1.734-2.458-2.459l-4.193,1.994c-0.647-0.347-1.334-0.632-2.049-0.849l-1.558-4.378C17.165,0.708,16.588,0.667,16,0.667s-1.166,0.041-1.737,0.105L12.707,5.15c-0.716,0.217-1.401,0.502-2.05,0.849L6.464,4.005C5.554,4.73,4.73,5.554,4.005,6.464l1.994,4.192c-0.347,0.648-0.632,1.334-0.849,2.05l-4.378,1.557C0.708,14.834,0.667,15.412,0.667,16s0.041,1.165,0.105,1.736l4.378,1.558c0.217,0.715,0.502,1.401,0.849,2.049l-1.994,4.193c0.725,0.909,1.549,1.733,2.459,2.458l4.192-1.993c0.648,0.347,1.334,0.633,2.05,0.851l1.557,4.377c0.571,0.064,1.148,0.104,1.737,0.104c0.588,0,1.165-0.04,1.736-0.104l1.558-4.377c0.715-0.218,1.399-0.504,2.049-0.851l4.193,1.993c0.909-0.725,1.733-1.549,2.458-2.458l-1.993-4.193c0.347-0.647,0.633-1.334,0.851-2.049L31.229,17.736zM16,20.871c-2.69,0-4.872-2.182-4.872-4.871c0-2.69,2.182-4.872,4.872-4.872c2.689,0,4.871,2.182,4.871,4.872C20.871,18.689,18.689,20.871,16,20.871z"></path><title>Link options.</title></g></g></g></g><g   id="j_41" ><path  stroke="#707070" d="M 1492 508 L 1867 808" id="v-487" stroke-width="2" stroke-dasharray="30 30" fill="none" style="opacity: 1;"></path><path  fill="black" stroke="black" d="M 0 0 0 0" transform="matrix(0.7808688282966614,0.6246950626373291,-0.6246950626373291,0.7808688282966614,1491.5,508)"></path><path  fill="#707070" stroke="#707070" d="M 20 0 L 0 10 L 20 20 z" id="v-489" transform="matrix(-0.7808688282966614,-0.6246950030326843,0.6246950030326843,-0.7808688282966614,1860.2530517578125,815.8087158203125)" style="opacity: 1;"></path><path  d="M 1492 508 L 1867 808" id="v-488" fill="none" style="cursor: auto; pointer-events: visiblepainted;"></path><g ><g id="v-481"  label-idx="0" cursor="move" transform="matrix(1,0,0,1,1679.5,658)" style="cursor: default; opacity: 1;"><rect joint-selector="rect" id="v-484" fill="#ffffff" rx="3" ry="3" stroke="#ffffff" stroke-width="20px" pointer-events="none" width="180.9204559326172" height="65.16592407226562" transform="matrix(1,0,0,1,-90.5,-32.599998474121094)"></rect><text joint-selector="text" id="v-483" font-size="24px" xml:space="preserve" y="0.8em" fill="#707070" text-anchor="middle" pointer-events="none" font-family="Open Sans" font-weight="normal" transform="matrix(1,0,0,1,0,-24.5)"><tspan  dy="0">Makes requests</tspan><tspan dy="1.2em" x="0" >to</tspan></text></g><g id="v-482"  label-idx="1" cursor="move" transform="matrix(1,0,0,1,1669.5,696.7999877929688)" style="cursor: default; opacity: 1;"><rect joint-selector="rect" id="v-486" fill="#ffffff" rx="3" ry="3"  width="0" height="0" transform="matrix(1,0,0,1,0,0)" display="none"></rect><text joint-selector="text" id="v-485" fill="#000000" font-size="14" text-anchor="middle" pointer-events="none"></text></g></g><g  display="none" style="display: none;"></g><g  id="v-491" display="none"><g  id="v-479"><path  end="source" d="M 26 0 L 0 13 L 26 26 z"></path></g><g  id="v-480"><path  end="target" d="M 26 0 L 0 13 L 26 26 z"></path></g></g><g  id="v-490" display="none"><g  id="v-478" transform="translate(1523.2347523777212, 532.987801902177) "><g  event="remove"><circle r="11"></circle><path transform="scale(.8) translate(-16, -16)" d="M24.778,21.419 19.276,15.917 24.777,10.415 21.949,7.585 16.447,13.087 10.945,7.585 8.117,10.415 13.618,15.917 8.116,21.419 10.946,24.248 16.447,18.746 21.948,24.248z"></path><title>Remove link.</title></g><g  event="link:options"><circle r="11" transform="translate(25)"></circle><path fill="white" transform="scale(.55) translate(29, -16)" d="M31.229,17.736c0.064-0.571,0.104-1.148,0.104-1.736s-0.04-1.166-0.104-1.737l-4.377-1.557c-0.218-0.716-0.504-1.401-0.851-2.05l1.993-4.192c-0.725-0.91-1.549-1.734-2.458-2.459l-4.193,1.994c-0.647-0.347-1.334-0.632-2.049-0.849l-1.558-4.378C17.165,0.708,16.588,0.667,16,0.667s-1.166,0.041-1.737,0.105L12.707,5.15c-0.716,0.217-1.401,0.502-2.05,0.849L6.464,4.005C5.554,4.73,4.73,5.554,4.005,6.464l1.994,4.192c-0.347,0.648-0.632,1.334-0.849,2.05l-4.378,1.557C0.708,14.834,0.667,15.412,0.667,16s0.041,1.165,0.105,1.736l4.378,1.558c0.217,0.715,0.502,1.401,0.849,2.049l-1.994,4.193c0.725,0.909,1.549,1.733,2.459,2.458l4.192-1.993c0.648,0.347,1.334,0.633,2.05,0.851l1.557,4.377c0.571,0.064,1.148,0.104,1.737,0.104c0.588,0,1.165-0.04,1.736-0.104l1.558-4.377c0.715-0.218,1.399-0.504,2.049-0.851l4.193,1.993c0.909-0.725,1.733-1.549,2.458-2.458l-1.993-4.193c0.347-0.647,0.633-1.334,0.851-2.049L31.229,17.736zM16,20.871c-2.69,0-4.872-2.182-4.872-4.871c0-2.69,2.182-4.872,4.872-4.872c2.689,0,4.871,2.182,4.871,4.872C20.871,18.689,18.689,20.871,16,20.871z"></path><title>Link options.</title></g></g></g></g><g   id="j_42" ><path  stroke="#707070" d="M 1304 1708 L 1304 2008" id="v-504" stroke-width="2" stroke-dasharray="30 30" fill="none" style="opacity: 1;"></path><path  fill="black" stroke="black" d="M 0 0 0 0" transform="matrix(6.123234262925839e-17,1,-1,6.123234262925839e-17,1304,1708)"></path><path  fill="#707070" stroke="#707070" d="M 20 0 L 0 10 L 20 20 z" id="v-506" transform="matrix(-1.8369701465288538e-16,-1,1,-1.8369701465288538e-16,1294,2008)" style="opacity: 1;"></path><path  d="M 1304 1708 L 1304 2008" id="v-505" fill="none" style="cursor: auto; pointer-events: visiblepainted;"></path><g ><g id="v-498"  label-idx="0" cursor="move" transform="matrix(1,0,0,1,1304,1858)" style="cursor: default; opacity: 1;"><rect joint-selector="rect" id="v-501" fill="#ffffff" rx="3" ry="3" stroke="#ffffff" stroke-width="20px" pointer-events="none" width="141.25888061523438" height="65.16592407226562" transform="matrix(1,0,0,1,-70.5999984741211,-32.599998474121094)"></rect><text joint-selector="text" id="v-500" font-size="24px" xml:space="preserve" y="0.8em" fill="#707070" text-anchor="middle" pointer-events="none" font-family="Open Sans" font-weight="normal" transform="matrix(1,0,0,1,0,-24.5)"><tspan  dy="0">Queries and</tspan><tspan dy="1.2em" x="0" >writes to</tspan></text></g><g id="v-499"  label-idx="1" cursor="move" transform="matrix(1,0,0,1,1294,1896.800048828125)" style="cursor: default; opacity: 1;"><rect joint-selector="rect" id="v-503" fill="#ffffff" rx="3" ry="3"  width="0" height="0" transform="matrix(1,0,0,1,0,0)" display="none"></rect><text joint-selector="text" id="v-502" fill="#000000" font-size="14" text-anchor="middle" pointer-events="none"></text></g></g><g  display="none" style="display: none;"></g><g  id="v-508" display="none"><g  id="v-496"><path  end="source" d="M 26 0 L 0 13 L 26 26 z"></path></g><g  id="v-497"><path  end="target" d="M 26 0 L 0 13 L 26 26 z"></path></g></g><g  id="v-507" display="none"><g  id="v-495" transform="translate(1304, 1748) "><g  event="remove"><circle r="11"></circle><path transform="scale(.8) translate(-16, -16)" d="M24.778,21.419 19.276,15.917 24.777,10.415 21.949,7.585 16.447,13.087 10.945,7.585 8.117,10.415 13.618,15.917 8.116,21.419 10.946,24.248 16.447,18.746 21.948,24.248z"></path><title>Remove link.</title></g><g  event="link:options"><circle r="11" transform="translate(25)"></circle><path fill="white" transform="scale(.55) translate(29, -16)" d="M31.229,17.736c0.064-0.571,0.104-1.148,0.104-1.736s-0.04-1.166-0.104-1.737l-4.377-1.557c-0.218-0.716-0.504-1.401-0.851-2.05l1.993-4.192c-0.725-0.91-1.549-1.734-2.458-2.459l-4.193,1.994c-0.647-0.347-1.334-0.632-2.049-0.849l-1.558-4.378C17.165,0.708,16.588,0.667,16,0.667s-1.166,0.041-1.737,0.105L12.707,5.15c-0.716,0.217-1.401,0.502-2.05,0.849L6.464,4.005C5.554,4.73,4.73,5.554,4.005,6.464l1.994,4.192c-0.347,0.648-0.632,1.334-0.849,2.05l-4.378,1.557C0.708,14.834,0.667,15.412,0.667,16s0.041,1.165,0.105,1.736l4.378,1.558c0.217,0.715,0.502,1.401,0.849,2.049l-1.994,4.193c0.725,0.909,1.549,1.733,2.459,2.458l4.192-1.993c0.648,0.347,1.334,0.633,2.05,0.851l1.557,4.377c0.571,0.064,1.148,0.104,1.737,0.104c0.588,0,1.165-0.04,1.736-0.104l1.558-4.377c0.715-0.218,1.399-0.504,2.049-0.851l4.193,1.993c0.909-0.725,1.733-1.549,2.458-2.458l-1.993-4.193c0.347-0.647,0.633-1.334,0.851-2.049L31.229,17.736zM16,20.871c-2.69,0-4.872-2.182-4.872-4.871c0-2.69,2.182-4.872,4.872-4.872c2.689,0,4.871,2.182,4.871,4.872C20.871,18.689,18.689,20.871,16,20.871z"></path><title>Link options.</title></g></g></g></g></g><g ></g><g ></g><g ></g></g></svg>