<svg xmlns="http://www.w3.org/2000/svg" xmlns:xlink="http://www.w3.org/1999/xlink" version="1.1" viewBox="0 0 2350 1300" style="background: #ffffff"><defs joint-selector="defs"></defs><g  joint-selector="layers" transform="matrix(1,0,0,1,0,0)"><g ></g><g ><g   id="j_81"  transform="translate(20,1255)"><g id="v-964"><text  id="v-965" font-size="22px" xml:space="preserve" y="0.8em" font-weight="normal" text-anchor="start" fill="#aaaaaa" pointer-events="none" font-family="Open Sans"><tspan  dy="0">Wednesday, 22 March 2023 at 11:42 Greenwich Mean Time</tspan></text></g></g><g   id="j_80"  transform="translate(20,1211)"><g id="v-962"><text  id="v-963" font-size="36px" xml:space="preserve" y="0.8em" font-weight="normal" text-anchor="start" fill="#000000" pointer-events="none" font-family="Open Sans"><tspan  dy="0">[System Context] LPA UID Service</tspan></text></g></g><g   id="j_77" ><path  stroke="#707070" d="M 1175 499 L 1175 799" id="v-920" stroke-width="2" stroke-dasharray="30 30" fill="none" style="opacity: 1;"></path><path  fill="black" stroke="black" d="M 0 0 0 0" transform="matrix(6.123234262925839e-17,1,-1,6.123234262925839e-17,1175,499)"></path><path  fill="#707070" stroke="#707070" d="M 20 0 L 0 10 L 20 20 z" id="v-922" transform="matrix(-1.8369701465288538e-16,-1,1,-1.8369701465288538e-16,1165,799)" style="opacity: 1;"></path><path  d="M 1175 499 L 1175 799" id="v-921" fill="none" style="cursor: auto; pointer-events: visiblepainted;"></path><g ><g id="v-914"  label-idx="0" cursor="move" transform="matrix(1,0,0,1,1175,649)" style="cursor: default; opacity: 1;"><rect joint-selector="rect" id="v-917" fill="#ffffff" rx="3" ry="3" stroke="#ffffff" stroke-width="20px" pointer-events="none" width="178.49012756347656" height="62.9484920501709" transform="matrix(1,0,0,1,-89.19999694824219,-31.399999618530273)"></rect><text joint-selector="text" id="v-916" font-size="24px" xml:space="preserve" y="0.8em" fill="#707070" text-anchor="middle" pointer-events="none" font-family="Open Sans" font-weight="normal" transform="matrix(1,0,0,1,0,-24.200000762939453)"><tspan  dy="0">Makes requests</tspan><tspan dy="1.2em" x="0" >to</tspan></text></g><g id="v-915"  label-idx="1" cursor="move" transform="matrix(1,0,0,1,1165,691)" style="cursor: default; opacity: 1;"><rect joint-selector="rect" id="v-919" fill="#ffffff" rx="3" ry="3"  width="0" height="0" transform="matrix(1,0,0,1,0,0)" display="none"></rect><text joint-selector="text" id="v-918" fill="#000000" font-size="14" text-anchor="middle" pointer-events="none"></text></g></g><g  display="none" style="display: none;"></g><g  id="v-924" display="none"><g  id="v-912"><path  end="source" d="M 26 0 L 0 13 L 26 26 z"></path></g><g  id="v-913"><path  end="target" d="M 26 0 L 0 13 L 26 26 z"></path></g></g><g  id="v-923" display="none"><g  id="v-911" transform="translate(1175, 539) "><g  event="remove"><circle r="11"></circle><path transform="scale(.8) translate(-16, -16)" d="M24.778,21.419 19.276,15.917 24.777,10.415 21.949,7.585 16.447,13.087 10.945,7.585 8.117,10.415 13.618,15.917 8.116,21.419 10.946,24.248 16.447,18.746 21.948,24.248z"></path><title>Remove link.</title></g><g  event="link:options"><circle r="11" transform="translate(25)"></circle><path fill="white" transform="scale(.55) translate(29, -16)" d="M31.229,17.736c0.064-0.571,0.104-1.148,0.104-1.736s-0.04-1.166-0.104-1.737l-4.377-1.557c-0.218-0.716-0.504-1.401-0.851-2.05l1.993-4.192c-0.725-0.91-1.549-1.734-2.458-2.459l-4.193,1.994c-0.647-0.347-1.334-0.632-2.049-0.849l-1.558-4.378C17.165,0.708,16.588,0.667,16,0.667s-1.166,0.041-1.737,0.105L12.707,5.15c-0.716,0.217-1.401,0.502-2.05,0.849L6.464,4.005C5.554,4.73,4.73,5.554,4.005,6.464l1.994,4.192c-0.347,0.648-0.632,1.334-0.849,2.05l-4.378,1.557C0.708,14.834,0.667,15.412,0.667,16s0.041,1.165,0.105,1.736l4.378,1.558c0.217,0.715,0.502,1.401,0.849,2.049l-1.994,4.193c0.725,0.909,1.549,1.733,2.459,2.458l4.192-1.993c0.648,0.347,1.334,0.633,2.05,0.851l1.557,4.377c0.571,0.064,1.148,0.104,1.737,0.104c0.588,0,1.165-0.04,1.736-0.104l1.558-4.377c0.715-0.218,1.399-0.504,2.049-0.851l4.193,1.993c0.909-0.725,1.733-1.549,2.458-2.458l-1.993-4.193c0.347-0.647,0.633-1.334,0.851-2.049L31.229,17.736zM16,20.871c-2.69,0-4.872-2.182-4.872-4.871c0-2.69,2.182-4.872,4.872-4.872c2.689,0,4.871,2.182,4.871,4.872C20.871,18.689,18.689,20.871,16,20.871z"></path><title>Link options.</title></g></g></g></g><g   id="j_78" ><path  stroke="#707070" d="M 1738 499 L 1363 799" id="v-937" stroke-width="2" stroke-dasharray="30 30" fill="none" style="opacity: 1;"></path><path  fill="black" stroke="black" d="M 0 0 0 0" transform="matrix(-0.7808688282966614,0.6246950030326843,-0.6246950030326843,-0.7808688282966614,1737.5,499)"></path><path  fill="#707070" stroke="#707070" d="M 20 0 L 0 10 L 20 20 z" id="v-939" transform="matrix(0.780868649482727,-0.6246952414512634,0.6246952414512634,0.780868649482727,1356.2530517578125,791.1913452148438)" style="opacity: 1;"></path><path  d="M 1738 499 L 1363 799" id="v-938" fill="none" style="cursor: auto; pointer-events: visiblepainted;"></path><g ><g id="v-931"  label-idx="0" cursor="move" transform="matrix(1,0,0,1,1550.5,649)" style="cursor: default; opacity: 1;"><rect joint-selector="rect" id="v-934" fill="#ffffff" rx="3" ry="3" stroke="#ffffff" stroke-width="20px" pointer-events="none" width="178.49012756347656" height="62.9484920501709" transform="matrix(1,0,0,1,-89.19999694824219,-31.399999618530273)"></rect><text joint-selector="text" id="v-933" font-size="24px" xml:space="preserve" y="0.8em" fill="#707070" text-anchor="middle" pointer-events="none" font-family="Open Sans" font-weight="normal" transform="matrix(1,0,0,1,0,-24.200000762939453)"><tspan  dy="0">Makes requests</tspan><tspan dy="1.2em" x="0" >to</tspan></text></g><g id="v-932"  label-idx="1" cursor="move" transform="matrix(1,0,0,1,1540.5,691)" style="cursor: default; opacity: 1;"><rect joint-selector="rect" id="v-936" fill="#ffffff" rx="3" ry="3"  width="0" height="0" transform="matrix(1,0,0,1,0,0)" display="none"></rect><text joint-selector="text" id="v-935" fill="#000000" font-size="14" text-anchor="middle" pointer-events="none"></text></g></g><g  display="none" style="display: none;"></g><g  id="v-941" display="none"><g  id="v-929"><path  end="source" d="M 26 0 L 0 13 L 26 26 z"></path></g><g  id="v-930"><path  end="target" d="M 26 0 L 0 13 L 26 26 z"></path></g></g><g  id="v-940" display="none"><g  id="v-928" transform="translate(1706.7652476222788, 523.987801902177) "><g  event="remove"><circle r="11"></circle><path transform="scale(.8) translate(-16, -16)" d="M24.778,21.419 19.276,15.917 24.777,10.415 21.949,7.585 16.447,13.087 10.945,7.585 8.117,10.415 13.618,15.917 8.116,21.419 10.946,24.248 16.447,18.746 21.948,24.248z"></path><title>Remove link.</title></g><g  event="link:options"><circle r="11" transform="translate(25)"></circle><path fill="white" transform="scale(.55) translate(29, -16)" d="M31.229,17.736c0.064-0.571,0.104-1.148,0.104-1.736s-0.04-1.166-0.104-1.737l-4.377-1.557c-0.218-0.716-0.504-1.401-0.851-2.05l1.993-4.192c-0.725-0.91-1.549-1.734-2.458-2.459l-4.193,1.994c-0.647-0.347-1.334-0.632-2.049-0.849l-1.558-4.378C17.165,0.708,16.588,0.667,16,0.667s-1.166,0.041-1.737,0.105L12.707,5.15c-0.716,0.217-1.401,0.502-2.05,0.849L6.464,4.005C5.554,4.73,4.73,5.554,4.005,6.464l1.994,4.192c-0.347,0.648-0.632,1.334-0.849,2.05l-4.378,1.557C0.708,14.834,0.667,15.412,0.667,16s0.041,1.165,0.105,1.736l4.378,1.558c0.217,0.715,0.502,1.401,0.849,2.049l-1.994,4.193c0.725,0.909,1.549,1.733,2.459,2.458l4.192-1.993c0.648,0.347,1.334,0.633,2.05,0.851l1.557,4.377c0.571,0.064,1.148,0.104,1.737,0.104c0.588,0,1.165-0.04,1.736-0.104l1.558-4.377c0.715-0.218,1.399-0.504,2.049-0.851l4.193,1.993c0.909-0.725,1.733-1.549,2.458-2.458l-1.993-4.193c0.347-0.647,0.633-1.334,0.851-2.049L31.229,17.736zM16,20.871c-2.69,0-4.872-2.182-4.872-4.871c0-2.69,2.182-4.872,4.872-4.872c2.689,0,4.871,2.182,4.871,4.872C20.871,18.689,18.689,20.871,16,20.871z"></path><title>Link options.</title></g></g></g></g><g   id="j_79" ><path  stroke="#707070" d="M 613 499 L 988 799" id="v-954" stroke-width="2" stroke-dasharray="30 30" fill="none" style="opacity: 1;"></path><path  fill="black" stroke="black" d="M 0 0 0 0" transform="matrix(0.7808688282966614,0.6246950626373291,-0.6246950626373291,0.7808688282966614,612.5,499)"></path><path  fill="#707070" stroke="#707070" d="M 20 0 L 0 10 L 20 20 z" id="v-956" transform="matrix(-0.7808688282966614,-0.6246950030326843,0.6246950030326843,-0.7808688282966614,981.2530517578125,806.8087158203125)" style="opacity: 1;"></path><path  d="M 613 499 L 988 799" id="v-955" fill="none" style="cursor: auto; pointer-events: visiblepainted;"></path><g ><g id="v-948"  label-idx="0" cursor="move" transform="matrix(1,0,0,1,800.5,649)" style="cursor: default; opacity: 1;"><rect joint-selector="rect" id="v-951" fill="#ffffff" rx="3" ry="3" stroke="#ffffff" stroke-width="20px" pointer-events="none" width="178.49012756347656" height="62.9484920501709" transform="matrix(1,0,0,1,-89.19999694824219,-31.399999618530273)"></rect><text joint-selector="text" id="v-950" font-size="24px" xml:space="preserve" y="0.8em" fill="#707070" text-anchor="middle" pointer-events="none" font-family="Open Sans" font-weight="normal" transform="matrix(1,0,0,1,0,-24.200000762939453)"><tspan  dy="0">Makes requests</tspan><tspan dy="1.2em" x="0" >to</tspan></text></g><g id="v-949"  label-idx="1" cursor="move" transform="matrix(1,0,0,1,790.5,691)" style="cursor: default; opacity: 1;"><rect joint-selector="rect" id="v-953" fill="#ffffff" rx="3" ry="3"  width="0" height="0" transform="matrix(1,0,0,1,0,0)" display="none"></rect><text joint-selector="text" id="v-952" fill="#000000" font-size="14" text-anchor="middle" pointer-events="none"></text></g></g><g  display="none" style="display: none;"></g><g  id="v-958" display="none"><g  id="v-946"><path  end="source" d="M 26 0 L 0 13 L 26 26 z"></path></g><g  id="v-947"><path  end="target" d="M 26 0 L 0 13 L 26 26 z"></path></g></g><g  id="v-957" display="none"><g  id="v-945" transform="translate(644.2347523777213, 523.987801902177) "><g  event="remove"><circle r="11"></circle><path transform="scale(.8) translate(-16, -16)" d="M24.778,21.419 19.276,15.917 24.777,10.415 21.949,7.585 16.447,13.087 10.945,7.585 8.117,10.415 13.618,15.917 8.116,21.419 10.946,24.248 16.447,18.746 21.948,24.248z"></path><title>Remove link.</title></g><g  event="link:options"><circle r="11" transform="translate(25)"></circle><path fill="white" transform="scale(.55) translate(29, -16)" d="M31.229,17.736c0.064-0.571,0.104-1.148,0.104-1.736s-0.04-1.166-0.104-1.737l-4.377-1.557c-0.218-0.716-0.504-1.401-0.851-2.05l1.993-4.192c-0.725-0.91-1.549-1.734-2.458-2.459l-4.193,1.994c-0.647-0.347-1.334-0.632-2.049-0.849l-1.558-4.378C17.165,0.708,16.588,0.667,16,0.667s-1.166,0.041-1.737,0.105L12.707,5.15c-0.716,0.217-1.401,0.502-2.05,0.849L6.464,4.005C5.554,4.73,4.73,5.554,4.005,6.464l1.994,4.192c-0.347,0.648-0.632,1.334-0.849,2.05l-4.378,1.557C0.708,14.834,0.667,15.412,0.667,16s0.041,1.165,0.105,1.736l4.378,1.558c0.217,0.715,0.502,1.401,0.849,2.049l-1.994,4.193c0.725,0.909,1.549,1.733,2.459,2.458l4.192-1.993c0.648,0.347,1.334,0.633,2.05,0.851l1.557,4.377c0.571,0.064,1.148,0.104,1.737,0.104c0.588,0,1.165-0.04,1.736-0.104l1.558-4.377c0.715-0.218,1.399-0.504,2.049-0.851l4.193,1.993c0.909-0.725,1.733-1.549,2.458-2.458l-1.993-4.193c0.347-0.647,0.633-1.334,0.851-2.049L31.229,17.736zM16,20.871c-2.69,0-4.872-2.182-4.872-4.871c0-2.69,2.182-4.872,4.872-4.872c2.689,0,4.871,2.182,4.871,4.872C20.871,18.689,18.689,20.871,16,20.871z"></path><title>Link options.</title></g></g></g></g><g   id="j_73"  transform="translate(200,199)" style=""><g  id="v-868" style="opacity: 1;"><rect  id="v-869" rx="20" ry="20" stroke="#8a8a8a" stroke-width="2" pointer-events="visiblePainted" fill="#999999" width="450" height="300" style="fill: rgb(153, 153, 153); stroke: rgb(138, 138, 138);"></rect><text  id="v-870" font-size="34" xml:space="preserve" y="0.8em" font-weight="bold" text-anchor="middle" pointer-events="visible" font-family="Open Sans" fill="#ffffff" transform="matrix(1,0,0,1,225,98.0999984741211)" style="fill: rgb(255, 255, 255);"><tspan  dy="0">LPA Case Management</tspan></text><text  id="v-871" font-size="17" xml:space="preserve" y="0.8em" text-anchor="middle" font-family="Open Sans" fill="#ffffff" transform="matrix(1,0,0,1,225,140.60000610351562)" style="fill: rgb(255, 255, 255);"><tspan  dy="0">[Software System]</tspan></text><text  id="v-872" font-size="24" xml:space="preserve" y="0.8em" text-anchor="middle" font-family="Open Sans" fill="#ffffff" transform="matrix(1,0,0,1,225,171.89999389648438)" style="fill: rgb(255, 255, 255);"><tspan  dy="0">PKA Sirius.</tspan></text><g  id="v-873" color="#ffffff" transform="matrix(1,0,0,1,222.5,211.89999389648438)" style="fill: rgb(255, 255, 255);" display="none"><g ></g><g ></g><g ></g><g ></g></g><image  id="v-874"></image></g></g><g   id="j_74"  transform="translate(950,199)" style=""><g  id="v-881" style="opacity: 1;"><rect  id="v-882" rx="20" ry="20" stroke="#0f5eaa" stroke-width="2" pointer-events="visiblePainted" fill="#1168bd" width="450" height="300" style="fill: rgb(17, 104, 189); stroke: rgb(15, 94, 170);"></rect><text  id="v-883" font-size="34" xml:space="preserve" y="0.8em" font-weight="bold" text-anchor="middle" pointer-events="visible" font-family="Open Sans" fill="#ffffff" transform="matrix(1,0,0,1,225,40.599998474121094)" style="fill: rgb(255, 255, 255);"><tspan  dy="0">Make and Register a</tspan><tspan dy="1.2em" x="0" >Lasting Power of</tspan><tspan dy="1.2em" x="0" >Attorney Online</tspan></text><text  id="v-884" font-size="17" xml:space="preserve" y="0.8em" text-anchor="middle" font-family="Open Sans" fill="#ffffff" transform="matrix(1,0,0,1,225,168.10000610351562)" style="fill: rgb(255, 255, 255);"><tspan  dy="0">[Software System]</tspan></text><text  id="v-885" font-size="24" xml:space="preserve" y="0.8em" text-anchor="middle" font-family="Open Sans" fill="#ffffff" transform="matrix(1,0,0,1,225,199.39999389648438)" style="fill: rgb(255, 255, 255);"><tspan  dy="0">Allows users to draft a Lasting</tspan><tspan dy="1.2em" x="0" >Power of Attorney online.</tspan></text><g  id="v-886" color="#ffffff" transform="matrix(1,0,0,1,222.5,269.3999938964844)" style="fill: rgb(255, 255, 255);" display="none"><g ></g><g ></g><g ></g><g ></g></g><image  id="v-887"></image></g></g><g   id="j_75"  transform="translate(950,799)" style=""><g  id="v-891" style="opacity: 1;"><rect  id="v-892" rx="20" ry="20" stroke="#0f5eaa" stroke-width="2" pointer-events="visiblePainted" fill="#1168bd" width="450" height="300" style="fill: rgb(17, 104, 189); stroke: rgb(15, 94, 170);"></rect><text  id="v-893" font-size="34" xml:space="preserve" y="0.8em" font-weight="bold" text-anchor="middle" pointer-events="visible" font-family="Open Sans" fill="#ffffff" transform="matrix(1,0,0,1,225,83.0999984741211)" style="fill: rgb(255, 255, 255);"><tspan  dy="0">LPA UID Service</tspan></text><text  id="v-894" font-size="17" xml:space="preserve" y="0.8em" text-anchor="middle" font-family="Open Sans" fill="#ffffff" transform="matrix(1,0,0,1,225,125.5999984741211)" style="fill: rgb(255, 255, 255);"><tspan  dy="0">[Software System]</tspan></text><text  id="v-895" font-size="24" xml:space="preserve" y="0.8em" text-anchor="middle" font-family="Open Sans" fill="#ffffff" transform="matrix(1,0,0,1,225,156.89999389648438)" style="fill: rgb(255, 255, 255);"><tspan  dy="0">Generates IDs and stores donor</tspan><tspan dy="1.2em" x="0" >details.</tspan></text><g  id="v-896" color="#ffffff" transform="matrix(1,0,0,1,210,226.89999389648438)" style="fill: rgb(255, 255, 255);" display="none"><g  transform="translate(5 0)"><svg xmlns="http://www.w3.org/2000/svg" width="20" height="20" fill="currentColor" viewBox="0 0 16 16"><path fill-rule="evenodd" d="M6.5 12a5.5 5.5 0 1 0 0-11 5.5 5.5 0 0 0 0 11zM13 6.5a6.5 6.5 0 1 1-13 0 6.5 6.5 0 0 1 13 0z"></path><path d="M10.344 11.742c.03.04.062.078.098.115l3.85 3.85a1 1 0 0 0 1.415-1.414l-3.85-3.85a1.007 1.007 0 0 0-.115-.1 6.538 6.538 0 0 1-1.398 1.4z"></path><path fill-rule="evenodd" d="M6.5 3a.5.5 0 0 1 .5.5V6h2.5a.5.5 0 0 1 0 1H7v2.5a.5.5 0 0 1-1 0V7H3.5a.5.5 0 0 1 0-1H6V3.5a.5.5 0 0 1 .5-.5z"></path></svg></g><g ></g><g ></g><g ></g></g><image  id="v-897"></image></g></g><g   id="j_76"  transform="translate(1700,199)" style=""><g  id="v-901" style="opacity: 1;"><rect  id="v-902" rx="20" ry="20" stroke="#8a8a8a" stroke-width="2" pointer-events="visiblePainted" fill="#999999" width="450" height="300" style="fill: rgb(153, 153, 153); stroke: rgb(138, 138, 138);"></rect><text  id="v-903" font-size="34" xml:space="preserve" y="0.8em" font-weight="bold" text-anchor="middle" pointer-events="visible" font-family="Open Sans" fill="#ffffff" transform="matrix(1,0,0,1,225,83.0999984741211)" style="fill: rgb(255, 255, 255);"><tspan  dy="0">LPA Public API</tspan></text><text  id="v-904" font-size="17" xml:space="preserve" y="0.8em" text-anchor="middle" font-family="Open Sans" fill="#ffffff" transform="matrix(1,0,0,1,225,125.5999984741211)" style="fill: rgb(255, 255, 255);"><tspan  dy="0">[Software System]</tspan></text><text  id="v-905" font-size="24" xml:space="preserve" y="0.8em" text-anchor="middle" font-family="Open Sans" fill="#ffffff" transform="matrix(1,0,0,1,225,156.89999389648438)" style="fill: rgb(255, 255, 255);"><tspan  dy="0">API Integration for external</tspan><tspan dy="1.2em" x="0" >integration.</tspan></text><g  id="v-906" color="#ffffff" transform="matrix(1,0,0,1,222.5,226.89999389648438)" style="fill: rgb(255, 255, 255);" display="none"><g ></g><g ></g><g ></g><g ></g></g><image  id="v-907"></image></g></g></g><g ></g><g ></g><g ></g></g></svg>