<svg xmlns="http://www.w3.org/2000/svg" xmlns:xlink="http://www.w3.org/1999/xlink" version="1.1" viewBox="0 0 4884 2691" style="background: #ffffff"><defs joint-selector="defs"></defs><g  joint-selector="layers" transform="matrix(1,0,0,1,0,0)"><g ></g><g ><g   id="j_82"  transform="translate(20,2646)"><g id="v-1055"><text  id="v-1056" font-size="22px" xml:space="preserve" y="0.8em" font-weight="normal" text-anchor="start" fill="#aaaaaa" pointer-events="none" font-family="Open Sans"><tspan  dy="0">Wednesday, 22 March 2023 at 11:32 Greenwich Mean Time</tspan></text></g></g><g   id="j_81"  transform="translate(20,2602)"><g id="v-1053"><text  id="v-1054" font-size="36px" xml:space="preserve" y="0.8em" font-weight="normal" text-anchor="start" fill="#000000" pointer-events="none" font-family="Open Sans"><tspan  dy="0">[Container] LPA UID Service</tspan></text></g></g><g   id="j_59"  transform="translate(554,779)" style=""><g id="v-744"><rect  id="v-745" width="1990" height="1711" rx="0" ry="0" fill="#ffffff" stroke="#0f5eaa" stroke-width="1" stroke-dasharray="20,20" pointer-events="none"></rect><text  id="v-746" font-size="24px" xml:space="preserve" y="1672" font-weight="normal" fill="#0f5eaa" text-anchor="start" pointer-events="visible" font-family="Open Sans" transform="matrix(1,0,0,1,15,0)"><tspan  dy="0">LPA UID Service</tspan></text><text  id="v-747" font-size="17px" xml:space="preserve" y="1696" font-weight="normal" fill="#0f5eaa" text-anchor="start" pointer-events="visible" font-family="Open Sans" transform="matrix(1,0,0,1,15,0)"><tspan  dy="0">[Software System]</tspan></text><image  id="v-748" pointer-events="visible"></image></g></g><g   id="j_71" ><path  stroke="#707070" d="M 972 1099 L 1376 1449" id="v-890" stroke-width="2" stroke-dasharray="30 30" fill="none" style="opacity: 1;"></path><path  fill="black" stroke="black" d="M 0 0 0 0" transform="matrix(0.7556841373443604,0.6549361944198608,-0.6549361944198608,0.7556841373443604,972.0800170898438,1099)"></path><path  fill="#707070" stroke="#707070" d="M 20 0 L 0 10 L 20 20 z" id="v-892" transform="matrix(-0.7556841969490051,-0.6549361944198608,0.6549361944198608,-0.7556841969490051,1369.37060546875,1456.556884765625)" style="opacity: 1;"></path><path  d="M 972 1099 L 1376 1449" id="v-891" fill="none" style="cursor: auto; pointer-events: visiblepainted;"></path><g ><g id="v-884"  label-idx="0" cursor="move" transform="matrix(1,0,0,1,1174,1274)" style="cursor: default; opacity: 1;"><rect joint-selector="rect" id="v-887" fill="#ffffff" rx="3" ry="3" stroke="#ffffff" stroke-width="20px" pointer-events="none" width="105.88375854492188" height="65.4300537109375" transform="matrix(1,0,0,1,-52.900001525878906,-32.70000076293945)"></rect><text joint-selector="text" id="v-886" font-size="24px" xml:space="preserve" y="0.8em" fill="#707070" text-anchor="middle" pointer-events="none" font-family="Open Sans" font-weight="normal" transform="matrix(1,0,0,1,0,-24.399999618530273)"><tspan  dy="0">Validates</tspan><tspan dy="1.2em" x="0" >requests</tspan></text></g><g id="v-885"  label-idx="1" cursor="move" transform="matrix(1,0,0,1,1164,1316)" style="cursor: default; opacity: 1;"><rect joint-selector="rect" id="v-889" fill="#ffffff" rx="3" ry="3"  width="0" height="0" transform="matrix(1,0,0,1,0,0)" display="none"></rect><text joint-selector="text" id="v-888" fill="#000000" font-size="14" text-anchor="middle" pointer-events="none"></text></g></g><g  display="none" style="display: none;"></g><g  id="v-894" display="none"><g  id="v-882"><path  end="source" d="M 26 0 L 0 13 L 26 26 z"></path></g><g  id="v-883"><path  end="target" d="M 26 0 L 0 13 L 26 26 z"></path></g></g><g  id="v-893" display="none"><g  id="v-881" transform="translate(1002.2325009877666, 1125.1915231329663) "><g  event="remove"><circle r="11"></circle><path transform="scale(.8) translate(-16, -16)" d="M24.778,21.419 19.276,15.917 24.777,10.415 21.949,7.585 16.447,13.087 10.945,7.585 8.117,10.415 13.618,15.917 8.116,21.419 10.946,24.248 16.447,18.746 21.948,24.248z"></path><title>Remove link.</title></g><g  event="link:options"><circle r="11" transform="translate(25)"></circle><path fill="white" transform="scale(.55) translate(29, -16)" d="M31.229,17.736c0.064-0.571,0.104-1.148,0.104-1.736s-0.04-1.166-0.104-1.737l-4.377-1.557c-0.218-0.716-0.504-1.401-0.851-2.05l1.993-4.192c-0.725-0.91-1.549-1.734-2.458-2.459l-4.193,1.994c-0.647-0.347-1.334-0.632-2.049-0.849l-1.558-4.378C17.165,0.708,16.588,0.667,16,0.667s-1.166,0.041-1.737,0.105L12.707,5.15c-0.716,0.217-1.401,0.502-2.05,0.849L6.464,4.005C5.554,4.73,4.73,5.554,4.005,6.464l1.994,4.192c-0.347,0.648-0.632,1.334-0.849,2.05l-4.378,1.557C0.708,14.834,0.667,15.412,0.667,16s0.041,1.165,0.105,1.736l4.378,1.558c0.217,0.715,0.502,1.401,0.849,2.049l-1.994,4.193c0.725,0.909,1.549,1.733,2.459,2.458l4.192-1.993c0.648,0.347,1.334,0.633,2.05,0.851l1.557,4.377c0.571,0.064,1.148,0.104,1.737,0.104c0.588,0,1.165-0.04,1.736-0.104l1.558-4.377c0.715-0.218,1.399-0.504,2.049-0.851l4.193,1.993c0.909-0.725,1.733-1.549,2.458-2.458l-1.993-4.193c0.347-0.647,0.633-1.334,0.851-2.049L31.229,17.736zM16,20.871c-2.69,0-4.872-2.182-4.872-4.871c0-2.69,2.182-4.872,4.872-4.872c2.689,0,4.871,2.182,4.871,4.872C20.871,18.689,18.689,20.871,16,20.871z"></path><title>Link options.</title></g></g></g></g><g   id="j_72" ><path  stroke="#707070" d="M 799 1099 L 799 1449" id="v-907" stroke-width="2" stroke-dasharray="30 30" fill="none" style="opacity: 1;"></path><path  fill="black" stroke="black" d="M 0 0 0 0" transform="matrix(6.123234262925839e-17,1,-1,6.123234262925839e-17,799,1099)"></path><path  fill="#707070" stroke="#707070" d="M 20 0 L 0 10 L 20 20 z" id="v-909" transform="matrix(-1.8369701465288538e-16,-1,1,-1.8369701465288538e-16,789,1449)" style="opacity: 1;"></path><path  d="M 799 1099 L 799 1449" id="v-908" fill="none" style="cursor: auto; pointer-events: visiblepainted;"></path><g ><g id="v-901"  label-idx="0" cursor="move" transform="matrix(1,0,0,1,799,1274)" style="cursor: default; opacity: 1;"><rect joint-selector="rect" id="v-904" fill="#ffffff" rx="3" ry="3" stroke="#ffffff" stroke-width="20px" pointer-events="none" width="180.3648681640625" height="123.03006362915039" transform="matrix(1,0,0,1,-90.19999694824219,-61.5)"></rect><text joint-selector="text" id="v-903" font-size="24px" xml:space="preserve" y="0.8em" fill="#707070" text-anchor="middle" pointer-events="none" font-family="Open Sans" font-weight="normal" transform="matrix(1,0,0,1,0,-53.20000076293945)"><tspan  dy="0">Forwards</tspan><tspan dy="1.2em" x="0" >requests to and</tspan><tspan dy="1.2em" x="0" >Returns</tspan><tspan dy="1.2em" x="0" >responses from</tspan></text></g><g id="v-902"  label-idx="1" cursor="move" transform="matrix(1,0,0,1,789,1346)" style="cursor: default; opacity: 1;"><rect joint-selector="rect" id="v-906" fill="#ffffff" rx="3" ry="3"  width="0" height="0" transform="matrix(1,0,0,1,0,0)" display="none"></rect><text joint-selector="text" id="v-905" fill="#000000" font-size="14" text-anchor="middle" pointer-events="none"></text></g></g><g  display="none" style="display: none;"></g><g  id="v-911" display="none"><g  id="v-899"><path  end="source" d="M 26 0 L 0 13 L 26 26 z"></path></g><g  id="v-900"><path  end="target" d="M 26 0 L 0 13 L 26 26 z"></path></g></g><g  id="v-910" display="none"><g  id="v-898" transform="translate(799, 1139) "><g  event="remove"><circle r="11"></circle><path transform="scale(.8) translate(-16, -16)" d="M24.778,21.419 19.276,15.917 24.777,10.415 21.949,7.585 16.447,13.087 10.945,7.585 8.117,10.415 13.618,15.917 8.116,21.419 10.946,24.248 16.447,18.746 21.948,24.248z"></path><title>Remove link.</title></g><g  event="link:options"><circle r="11" transform="translate(25)"></circle><path fill="white" transform="scale(.55) translate(29, -16)" d="M31.229,17.736c0.064-0.571,0.104-1.148,0.104-1.736s-0.04-1.166-0.104-1.737l-4.377-1.557c-0.218-0.716-0.504-1.401-0.851-2.05l1.993-4.192c-0.725-0.91-1.549-1.734-2.458-2.459l-4.193,1.994c-0.647-0.347-1.334-0.632-2.049-0.849l-1.558-4.378C17.165,0.708,16.588,0.667,16,0.667s-1.166,0.041-1.737,0.105L12.707,5.15c-0.716,0.217-1.401,0.502-2.05,0.849L6.464,4.005C5.554,4.73,4.73,5.554,4.005,6.464l1.994,4.192c-0.347,0.648-0.632,1.334-0.849,2.05l-4.378,1.557C0.708,14.834,0.667,15.412,0.667,16s0.041,1.165,0.105,1.736l4.378,1.558c0.217,0.715,0.502,1.401,0.849,2.049l-1.994,4.193c0.725,0.909,1.549,1.733,2.459,2.458l4.192-1.993c0.648,0.347,1.334,0.633,2.05,0.851l1.557,4.377c0.571,0.064,1.148,0.104,1.737,0.104c0.588,0,1.165-0.04,1.736-0.104l1.558-4.377c0.715-0.218,1.399-0.504,2.049-0.851l4.193,1.993c0.909-0.725,1.733-1.549,2.458-2.458l-1.993-4.193c0.347-0.647,0.633-1.334,0.851-2.049L31.229,17.736zM16,20.871c-2.69,0-4.872-2.182-4.872-4.871c0-2.69,2.182-4.872,4.872-4.872c2.689,0,4.871,2.182,4.871,4.872C20.871,18.689,18.689,20.871,16,20.871z"></path><title>Link options.</title></g></g></g></g><g   id="j_73" ><path  stroke="#707070" d="M 3833 1792 L 4152 2099" id="v-921" stroke-width="2" stroke-dasharray="30 30" fill="none" style="opacity: 1;"></path><path  fill="black" stroke="black" d="M 0 0 0 0" transform="matrix(0.7203164100646973,0.6936455965042114,-0.6936455965042114,0.7203164100646973,3833,1791.5899658203125)"></path><path  fill="#707070" stroke="#707070" d="M 20 0 L 0 10 L 20 20 z" id="v-923" transform="matrix(-0.7203164100646973,-0.6936455965042114,0.6936455965042114,-0.7203164100646973,4145.29345703125,2106.203125)" style="opacity: 1;"></path><path  d="M 3833 1792 L 4152 2099" id="v-922" fill="none" style="cursor: auto; pointer-events: visiblepainted;"></path><g ><g id="v-915"  label-idx="0" cursor="move" transform="matrix(1,0,0,1,3992.5,1945.5)" style="cursor: default; opacity: 1;"><rect joint-selector="rect" id="v-918" fill="#ffffff" rx="3" ry="3" stroke="#ffffff" stroke-width="20px" pointer-events="none" width="58.45546340942383" height="36.63005447387695" transform="matrix(1,0,0,1,-29.200000762939453,-18.299999237060547)"></rect><text joint-selector="text" id="v-917" font-size="24px" xml:space="preserve" y="0.8em" fill="#707070" text-anchor="middle" pointer-events="none" font-family="Open Sans" font-weight="normal" transform="matrix(1,0,0,1,0,-10)"><tspan  dy="0">Uses</tspan></text></g><g id="v-916"  label-idx="1" cursor="move" transform="matrix(1,0,0,1,3982.5,1972.5)" style="cursor: default; opacity: 1;"><rect joint-selector="rect" id="v-920" fill="#ffffff" rx="3" ry="3"  width="0" height="0" transform="matrix(1,0,0,1,0,0)" display="none"></rect><text joint-selector="text" id="v-919" fill="#000000" font-size="14" text-anchor="middle" pointer-events="none"></text></g></g><g  display="none" style="display: none;"></g><g  id="v-925" display="none"><g  id="v-913"><path  end="source" d="M 26 0 L 0 13 L 26 26 z"></path></g><g  id="v-914"><path  end="target" d="M 26 0 L 0 13 L 26 26 z"></path></g></g><g  id="v-924" display="none"><g  id="v-912" transform="translate(3861.821166878206, 1819.736985052067) "><g  event="remove"><circle r="11"></circle><path transform="scale(.8) translate(-16, -16)" d="M24.778,21.419 19.276,15.917 24.777,10.415 21.949,7.585 16.447,13.087 10.945,7.585 8.117,10.415 13.618,15.917 8.116,21.419 10.946,24.248 16.447,18.746 21.948,24.248z"></path><title>Remove link.</title></g><g  event="link:options"><circle r="11" transform="translate(25)"></circle><path fill="white" transform="scale(.55) translate(29, -16)" d="M31.229,17.736c0.064-0.571,0.104-1.148,0.104-1.736s-0.04-1.166-0.104-1.737l-4.377-1.557c-0.218-0.716-0.504-1.401-0.851-2.05l1.993-4.192c-0.725-0.91-1.549-1.734-2.458-2.459l-4.193,1.994c-0.647-0.347-1.334-0.632-2.049-0.849l-1.558-4.378C17.165,0.708,16.588,0.667,16,0.667s-1.166,0.041-1.737,0.105L12.707,5.15c-0.716,0.217-1.401,0.502-2.05,0.849L6.464,4.005C5.554,4.73,4.73,5.554,4.005,6.464l1.994,4.192c-0.347,0.648-0.632,1.334-0.849,2.05l-4.378,1.557C0.708,14.834,0.667,15.412,0.667,16s0.041,1.165,0.105,1.736l4.378,1.558c0.217,0.715,0.502,1.401,0.849,2.049l-1.994,4.193c0.725,0.909,1.549,1.733,2.459,2.458l4.192-1.993c0.648,0.347,1.334,0.633,2.05,0.851l1.557,4.377c0.571,0.064,1.148,0.104,1.737,0.104c0.588,0,1.165-0.04,1.736-0.104l1.558-4.377c0.715-0.218,1.399-0.504,2.049-0.851l4.193,1.993c0.909-0.725,1.733-1.549,2.458-2.458l-1.993-4.193c0.347-0.647,0.633-1.334,0.851-2.049L31.229,17.736zM16,20.871c-2.69,0-4.872-2.182-4.872-4.871c0-2.69,2.182-4.872,4.872-4.872c2.689,0,4.871,2.182,4.871,4.872C20.871,18.689,18.689,20.871,16,20.871z"></path><title>Link options.</title></g></g></g></g><g   id="j_74" ><path  stroke="#707070" d="M 1080 499 L 893 799" id="v-938" stroke-width="2" stroke-dasharray="30 30" fill="none" style="opacity: 1;"></path><path  fill="black" stroke="black" d="M 0 0 0 0" transform="matrix(-0.5299989581108093,0.8479982614517212,-0.8479982614517212,-0.5299989581108093,1080.25,499)"></path><path  fill="#707070" stroke="#707070" d="M 20 0 L 0 10 L 20 20 z" id="v-940" transform="matrix(0.529998779296875,-0.8479984402656555,0.8479984402656555,0.529998779296875,884.27001953125,793.7000122070312)" style="opacity: 1;"></path><path  d="M 1080 499 L 893 799" id="v-939" fill="none" style="cursor: auto; pointer-events: visiblepainted;"></path><g ><g id="v-932"  label-idx="0" cursor="move" transform="matrix(1,0,0,1,986.5,649)" style="cursor: default; opacity: 1;"><rect joint-selector="rect" id="v-935" fill="#ffffff" rx="3" ry="3" stroke="#ffffff" stroke-width="20px" pointer-events="none" width="180.86090087890625" height="65.4300537109375" transform="matrix(1,0,0,1,-90.4000015258789,-32.70000076293945)"></rect><text joint-selector="text" id="v-934" font-size="24px" xml:space="preserve" y="0.8em" fill="#707070" text-anchor="middle" pointer-events="none" font-family="Open Sans" font-weight="normal" transform="matrix(1,0,0,1,0,-24.399999618530273)"><tspan  dy="0">Makes requests</tspan><tspan dy="1.2em" x="0" >to</tspan></text></g><g id="v-933"  label-idx="1" cursor="move" transform="matrix(1,0,0,1,976.5,691)" style="cursor: default; opacity: 1;"><rect joint-selector="rect" id="v-937" fill="#ffffff" rx="3" ry="3"  width="0" height="0" transform="matrix(1,0,0,1,0,0)" display="none"></rect><text joint-selector="text" id="v-936" fill="#000000" font-size="14" text-anchor="middle" pointer-events="none"></text></g></g><g  display="none" style="display: none;"></g><g  id="v-942" display="none"><g  id="v-930"><path  end="source" d="M 26 0 L 0 13 L 26 26 z"></path></g><g  id="v-931"><path  end="target" d="M 26 0 L 0 13 L 26 26 z"></path></g></g><g  id="v-941" display="none"><g  id="v-929" transform="translate(1058.8407411961143, 532.9453349794959) "><g  event="remove"><circle r="11"></circle><path transform="scale(.8) translate(-16, -16)" d="M24.778,21.419 19.276,15.917 24.777,10.415 21.949,7.585 16.447,13.087 10.945,7.585 8.117,10.415 13.618,15.917 8.116,21.419 10.946,24.248 16.447,18.746 21.948,24.248z"></path><title>Remove link.</title></g><g  event="link:options"><circle r="11" transform="translate(25)"></circle><path fill="white" transform="scale(.55) translate(29, -16)" d="M31.229,17.736c0.064-0.571,0.104-1.148,0.104-1.736s-0.04-1.166-0.104-1.737l-4.377-1.557c-0.218-0.716-0.504-1.401-0.851-2.05l1.993-4.192c-0.725-0.91-1.549-1.734-2.458-2.459l-4.193,1.994c-0.647-0.347-1.334-0.632-2.049-0.849l-1.558-4.378C17.165,0.708,16.588,0.667,16,0.667s-1.166,0.041-1.737,0.105L12.707,5.15c-0.716,0.217-1.401,0.502-2.05,0.849L6.464,4.005C5.554,4.73,4.73,5.554,4.005,6.464l1.994,4.192c-0.347,0.648-0.632,1.334-0.849,2.05l-4.378,1.557C0.708,14.834,0.667,15.412,0.667,16s0.041,1.165,0.105,1.736l4.378,1.558c0.217,0.715,0.502,1.401,0.849,2.049l-1.994,4.193c0.725,0.909,1.549,1.733,2.459,2.458l4.192-1.993c0.648,0.347,1.334,0.633,2.05,0.851l1.557,4.377c0.571,0.064,1.148,0.104,1.737,0.104c0.588,0,1.165-0.04,1.736-0.104l1.558-4.377c0.715-0.218,1.399-0.504,2.049-0.851l4.193,1.993c0.909-0.725,1.733-1.549,2.458-2.458l-1.993-4.193c0.347-0.647,0.633-1.334,0.851-2.049L31.229,17.736zM16,20.871c-2.69,0-4.872-2.182-4.872-4.871c0-2.69,2.182-4.872,4.872-4.872c2.689,0,4.871,2.182,4.871,4.872C20.871,18.689,18.689,20.871,16,20.871z"></path><title>Link options.</title></g></g></g></g><g   id="j_75" ><path  stroke="#707070" d="M 518 499 L 705 799" id="v-955" stroke-width="2" stroke-dasharray="30 30" fill="none" style="opacity: 1;"></path><path  fill="black" stroke="black" d="M 0 0 0 0" transform="matrix(0.5299989581108093,0.847998321056366,-0.847998321056366,0.5299989581108093,517.75,499)"></path><path  fill="#707070" stroke="#707070" d="M 20 0 L 0 10 L 20 20 z" id="v-957" transform="matrix(-0.5299989581108093,-0.8479982614517212,0.8479982614517212,-0.5299989581108093,696.77001953125,804.2999877929688)" style="opacity: 1;"></path><path  d="M 518 499 L 705 799" id="v-956" fill="none" style="cursor: auto; pointer-events: visiblepainted;"></path><g ><g id="v-949"  label-idx="0" cursor="move" transform="matrix(1,0,0,1,611.5,649)" style="cursor: default; opacity: 1;"><rect joint-selector="rect" id="v-952" fill="#ffffff" rx="3" ry="3" stroke="#ffffff" stroke-width="20px" pointer-events="none" width="180.86090087890625" height="65.4300537109375" transform="matrix(1,0,0,1,-90.4000015258789,-32.70000076293945)"></rect><text joint-selector="text" id="v-951" font-size="24px" xml:space="preserve" y="0.8em" fill="#707070" text-anchor="middle" pointer-events="none" font-family="Open Sans" font-weight="normal" transform="matrix(1,0,0,1,0,-24.399999618530273)"><tspan  dy="0">Makes requests</tspan><tspan dy="1.2em" x="0" >to</tspan></text></g><g id="v-950"  label-idx="1" cursor="move" transform="matrix(1,0,0,1,601.5,691)" style="cursor: default; opacity: 1;"><rect joint-selector="rect" id="v-954" fill="#ffffff" rx="3" ry="3"  width="0" height="0" transform="matrix(1,0,0,1,0,0)" display="none"></rect><text joint-selector="text" id="v-953" fill="#000000" font-size="14" text-anchor="middle" pointer-events="none"></text></g></g><g  display="none" style="display: none;"></g><g  id="v-959" display="none"><g  id="v-947"><path  end="source" d="M 26 0 L 0 13 L 26 26 z"></path></g><g  id="v-948"><path  end="target" d="M 26 0 L 0 13 L 26 26 z"></path></g></g><g  id="v-958" display="none"><g  id="v-946" transform="translate(539.1592588038858, 532.9453349794959) "><g  event="remove"><circle r="11"></circle><path transform="scale(.8) translate(-16, -16)" d="M24.778,21.419 19.276,15.917 24.777,10.415 21.949,7.585 16.447,13.087 10.945,7.585 8.117,10.415 13.618,15.917 8.116,21.419 10.946,24.248 16.447,18.746 21.948,24.248z"></path><title>Remove link.</title></g><g  event="link:options"><circle r="11" transform="translate(25)"></circle><path fill="white" transform="scale(.55) translate(29, -16)" d="M31.229,17.736c0.064-0.571,0.104-1.148,0.104-1.736s-0.04-1.166-0.104-1.737l-4.377-1.557c-0.218-0.716-0.504-1.401-0.851-2.05l1.993-4.192c-0.725-0.91-1.549-1.734-2.458-2.459l-4.193,1.994c-0.647-0.347-1.334-0.632-2.049-0.849l-1.558-4.378C17.165,0.708,16.588,0.667,16,0.667s-1.166,0.041-1.737,0.105L12.707,5.15c-0.716,0.217-1.401,0.502-2.05,0.849L6.464,4.005C5.554,4.73,4.73,5.554,4.005,6.464l1.994,4.192c-0.347,0.648-0.632,1.334-0.849,2.05l-4.378,1.557C0.708,14.834,0.667,15.412,0.667,16s0.041,1.165,0.105,1.736l4.378,1.558c0.217,0.715,0.502,1.401,0.849,2.049l-1.994,4.193c0.725,0.909,1.549,1.733,2.459,2.458l4.192-1.993c0.648,0.347,1.334,0.633,2.05,0.851l1.557,4.377c0.571,0.064,1.148,0.104,1.737,0.104c0.588,0,1.165-0.04,1.736-0.104l1.558-4.377c0.715-0.218,1.399-0.504,2.049-0.851l4.193,1.993c0.909-0.725,1.733-1.549,2.458-2.458l-1.993-4.193c0.347-0.647,0.633-1.334,0.851-2.049L31.229,17.736zM16,20.871c-2.69,0-4.872-2.182-4.872-4.871c0-2.69,2.182-4.872,4.872-4.872c2.689,0,4.871,2.182,4.871,4.872C20.871,18.689,18.689,20.871,16,20.871z"></path><title>Link options.</title></g></g></g></g><g   id="j_76" ><path  stroke="#707070" d="M 1024 1039 L 1165 1095 C 1171 1097.6666666666665 1177.3333333333333 1100 1184 1102 L 2733 1542" id="v-970" stroke-width="2" stroke-dasharray="30 30" fill="none" style="opacity: 1;"></path><path  fill="black" stroke="black" d="M 0 0 0 0" transform="matrix(0.9284766912460327,0.3713906705379486,-0.3713906705379486,0.9284766912460327,1024,1039)"></path><path  fill="#707070" stroke="#707070" d="M 20 0 L 0 10 L 20 20 z" id="v-972" transform="matrix(-0.9618943929672241,-0.27342119812965393,0.27342119812965393,-0.9618943929672241,2730.265869140625,1551.7689208984375)" style="opacity: 1;"></path><path  d="M 1024 1039 L 1165 1095 C 1171 1097.6666666666665 1177.3333333333333 1100 1184 1102 L 2733 1542" id="v-971" fill="none" style="cursor: auto; pointer-events: visiblepainted;"></path><g ><g id="v-964"  label-idx="0" cursor="move" transform="matrix(1,0,0,1,1875.784912109375,1298.50439453125)" style="cursor: default; opacity: 1;"><rect joint-selector="rect" id="v-967" fill="#ffffff" rx="3" ry="3" stroke="#ffffff" stroke-width="20px" pointer-events="none" width="58.45546340942383" height="36.63005447387695" transform="matrix(1,0,0,1,-29.200000762939453,-18.299999237060547)"></rect><text joint-selector="text" id="v-966" font-size="24px" xml:space="preserve" y="0.8em" fill="#707070" text-anchor="middle" pointer-events="none" font-family="Open Sans" font-weight="normal" transform="matrix(1,0,0,1,0,-10)"><tspan  dy="0">Uses</tspan></text></g><g id="v-965"  label-idx="1" cursor="move" transform="matrix(1,0,0,1,1865.784912109375,1325.50439453125)" style="cursor: default; opacity: 1;"><rect joint-selector="rect" id="v-969" fill="#ffffff" rx="3" ry="3"  width="0" height="0" transform="matrix(1,0,0,1,0,0)" display="none"></rect><text joint-selector="text" id="v-968" fill="#000000" font-size="14" text-anchor="middle" pointer-events="none"></text></g></g><g  display="none" style="display: none;"><g  transform="translate(1174, 1099)" id="v-961"><circle  idx="0" r="10"></circle><path  idx="0" d="M16,5.333c-7.732,0-14,4.701-14,10.5c0,1.982,0.741,3.833,2.016,5.414L2,25.667l5.613-1.441c2.339,1.317,5.237,2.107,8.387,2.107c7.732,0,14-4.701,14-10.5C30,10.034,23.732,5.333,16,5.333z" transform="translate(5, -33)"></path><path  idx="0" transform="scale(.8) translate(9.5, -37)" d="M24.778,21.419 19.276,15.917 24.777,10.415 21.949,7.585 16.447,13.087 10.945,7.585 8.117,10.415 13.618,15.917 8.116,21.419 10.946,24.248 16.447,18.746 21.948,24.248z"><title>Remove vertex.</title></path></g></g><g  id="v-974" display="none"><g  id="v-962"><path  end="source" d="M 26 0 L 0 13 L 26 26 z"></path></g><g  id="v-963"><path  end="target" d="M 26 0 L 0 13 L 26 26 z"></path></g></g><g  id="v-973" display="none"><g  id="v-960" transform="translate(1061.1753225311058, 1053.7646671045527) "><g  event="remove"><circle r="11"></circle><path transform="scale(.8) translate(-16, -16)" d="M24.778,21.419 19.276,15.917 24.777,10.415 21.949,7.585 16.447,13.087 10.945,7.585 8.117,10.415 13.618,15.917 8.116,21.419 10.946,24.248 16.447,18.746 21.948,24.248z"></path><title>Remove link.</title></g><g  event="link:options"><circle r="11" transform="translate(25)"></circle><path fill="white" transform="scale(.55) translate(29, -16)" d="M31.229,17.736c0.064-0.571,0.104-1.148,0.104-1.736s-0.04-1.166-0.104-1.737l-4.377-1.557c-0.218-0.716-0.504-1.401-0.851-2.05l1.993-4.192c-0.725-0.91-1.549-1.734-2.458-2.459l-4.193,1.994c-0.647-0.347-1.334-0.632-2.049-0.849l-1.558-4.378C17.165,0.708,16.588,0.667,16,0.667s-1.166,0.041-1.737,0.105L12.707,5.15c-0.716,0.217-1.401,0.502-2.05,0.849L6.464,4.005C5.554,4.73,4.73,5.554,4.005,6.464l1.994,4.192c-0.347,0.648-0.632,1.334-0.849,2.05l-4.378,1.557C0.708,14.834,0.667,15.412,0.667,16s0.041,1.165,0.105,1.736l4.378,1.558c0.217,0.715,0.502,1.401,0.849,2.049l-1.994,4.193c0.725,0.909,1.549,1.733,2.459,2.458l4.192-1.993c0.648,0.347,1.334,0.633,2.05,0.851l1.557,4.377c0.571,0.064,1.148,0.104,1.737,0.104c0.588,0,1.165-0.04,1.736-0.104l1.558-4.377c0.715-0.218,1.399-0.504,2.049-0.851l4.193,1.993c0.909-0.725,1.733-1.549,2.458-2.458l-1.993-4.193c0.347-0.647,0.633-1.334,0.851-2.049L31.229,17.736zM16,20.871c-2.69,0-4.872-2.182-4.872-4.871c0-2.69,2.182-4.872,4.872-4.872c2.689,0,4.871,2.182,4.871,4.872C20.871,18.689,18.689,20.871,16,20.871z"></path><title>Link options.</title></g></g></g></g><g   id="j_77" ><path  stroke="#707070" d="M 799 1749 L 799 2099" id="v-987" stroke-width="2" stroke-dasharray="30 30" fill="none" style="opacity: 1;"></path><path  fill="black" stroke="black" d="M 0 0 0 0" transform="matrix(6.123234262925839e-17,1,-1,6.123234262925839e-17,799,1749)"></path><path  fill="#707070" stroke="#707070" d="M 20 0 L 0 10 L 20 20 z" id="v-989" transform="matrix(-1.8369701465288538e-16,-1,1,-1.8369701465288538e-16,789,2099)" style="opacity: 1;"></path><path  d="M 799 1749 L 799 2099" id="v-988" fill="none" style="cursor: auto; pointer-events: visiblepainted;"></path><g ><g id="v-981"  label-idx="0" cursor="move" transform="matrix(1,0,0,1,799,1924)" style="cursor: default; opacity: 1;"><rect joint-selector="rect" id="v-984" fill="#ffffff" rx="3" ry="3" stroke="#ffffff" stroke-width="20px" pointer-events="none" width="141.2165069580078" height="65.4300537109375" transform="matrix(1,0,0,1,-70.5999984741211,-32.70000076293945)"></rect><text joint-selector="text" id="v-983" font-size="24px" xml:space="preserve" y="0.8em" fill="#707070" text-anchor="middle" pointer-events="none" font-family="Open Sans" font-weight="normal" transform="matrix(1,0,0,1,0,-24.399999618530273)"><tspan  dy="0">Queries and</tspan><tspan dy="1.2em" x="0" >writes to</tspan></text></g><g id="v-982"  label-idx="1" cursor="move" transform="matrix(1,0,0,1,789,1966)" style="cursor: default; opacity: 1;"><rect joint-selector="rect" id="v-986" fill="#ffffff" rx="3" ry="3"  width="0" height="0" transform="matrix(1,0,0,1,0,0)" display="none"></rect><text joint-selector="text" id="v-985" fill="#000000" font-size="14" text-anchor="middle" pointer-events="none"></text></g></g><g  display="none" style="display: none;"></g><g  id="v-991" display="none"><g  id="v-979"><path  end="source" d="M 26 0 L 0 13 L 26 26 z"></path></g><g  id="v-980"><path  end="target" d="M 26 0 L 0 13 L 26 26 z"></path></g></g><g  id="v-990" display="none"><g  id="v-978" transform="translate(799, 1789) "><g  event="remove"><circle r="11"></circle><path transform="scale(.8) translate(-16, -16)" d="M24.778,21.419 19.276,15.917 24.777,10.415 21.949,7.585 16.447,13.087 10.945,7.585 8.117,10.415 13.618,15.917 8.116,21.419 10.946,24.248 16.447,18.746 21.948,24.248z"></path><title>Remove link.</title></g><g  event="link:options"><circle r="11" transform="translate(25)"></circle><path fill="white" transform="scale(.55) translate(29, -16)" d="M31.229,17.736c0.064-0.571,0.104-1.148,0.104-1.736s-0.04-1.166-0.104-1.737l-4.377-1.557c-0.218-0.716-0.504-1.401-0.851-2.05l1.993-4.192c-0.725-0.91-1.549-1.734-2.458-2.459l-4.193,1.994c-0.647-0.347-1.334-0.632-2.049-0.849l-1.558-4.378C17.165,0.708,16.588,0.667,16,0.667s-1.166,0.041-1.737,0.105L12.707,5.15c-0.716,0.217-1.401,0.502-2.05,0.849L6.464,4.005C5.554,4.73,4.73,5.554,4.005,6.464l1.994,4.192c-0.347,0.648-0.632,1.334-0.849,2.05l-4.378,1.557C0.708,14.834,0.667,15.412,0.667,16s0.041,1.165,0.105,1.736l4.378,1.558c0.217,0.715,0.502,1.401,0.849,2.049l-1.994,4.193c0.725,0.909,1.549,1.733,2.459,2.458l4.192-1.993c0.648,0.347,1.334,0.633,2.05,0.851l1.557,4.377c0.571,0.064,1.148,0.104,1.737,0.104c0.588,0,1.165-0.04,1.736-0.104l1.558-4.377c0.715-0.218,1.399-0.504,2.049-0.851l4.193,1.993c0.909-0.725,1.733-1.549,2.458-2.458l-1.993-4.193c0.347-0.647,0.633-1.334,0.851-2.049L31.229,17.736zM16,20.871c-2.69,0-4.872-2.182-4.872-4.871c0-2.69,2.182-4.872,4.872-4.872c2.689,0,4.871,2.182,4.871,4.872C20.871,18.689,18.689,20.871,16,20.871z"></path><title>Link options.</title></g></g></g></g><g   id="j_78" ><path  stroke="#707070" d="M 1024 1039 L 1165 1095 C 1171 1097.6666666666665 1177.3333333333333 1099.3333333333333 1184 1100 L 3273 1398 C 3279.6666666666665 1398.6666666666665 3286 1400.6666666666665 3292 1404 L 3433 1485" id="v-1003" stroke-width="2" stroke-dasharray="30 30" fill="none" style="opacity: 1;"></path><path  fill="black" stroke="black" d="M 0 0 0 0" transform="matrix(0.9284766912460327,0.3713906705379486,-0.3713906705379486,0.9284766912460327,1024,1039)"></path><path  fill="#707070" stroke="#707070" d="M 20 0 L 0 10 L 20 20 z" id="v-1005" transform="matrix(-0.868253767490387,-0.49612030386924744,0.49612030386924744,-0.868253767490387,3428.038818359375,1493.392578125)" style="opacity: 1;"></path><path  d="M 1024 1039 L 1165 1095 C 1171 1097.6666666666665 1177.3333333333333 1099.3333333333333 1184 1100 L 3273 1398 C 3279.6666666666665 1398.6666666666665 3286 1400.6666666666665 3292 1404 L 3433 1485" id="v-1004" fill="none" style="cursor: auto; pointer-events: visiblepainted;"></path><g ><g id="v-997"  label-idx="0" cursor="move" transform="matrix(1,0,0,1,2234.060791015625,1249.793212890625)" style="cursor: default; opacity: 1;"><rect joint-selector="rect" id="v-1000" fill="#ffffff" rx="3" ry="3" stroke="#ffffff" stroke-width="20px" pointer-events="none" width="58.45546340942383" height="36.63005447387695" transform="matrix(1,0,0,1,-29.200000762939453,-18.299999237060547)"></rect><text joint-selector="text" id="v-999" font-size="24px" xml:space="preserve" y="0.8em" fill="#707070" text-anchor="middle" pointer-events="none" font-family="Open Sans" font-weight="normal" transform="matrix(1,0,0,1,0,-10)"><tspan  dy="0">Uses</tspan></text></g><g id="v-998"  label-idx="1" cursor="move" transform="matrix(1,0,0,1,2224.060791015625,1276.793212890625)" style="cursor: default; opacity: 1;"><rect joint-selector="rect" id="v-1002" fill="#ffffff" rx="3" ry="3"  width="0" height="0" transform="matrix(1,0,0,1,0,0)" display="none"></rect><text joint-selector="text" id="v-1001" fill="#000000" font-size="14" text-anchor="middle" pointer-events="none"></text></g></g><g  display="none" style="display: none;"><g  transform="translate(1174, 1099)" id="v-993"><circle  idx="0" r="10"></circle><path  idx="0" d="M16,5.333c-7.732,0-14,4.701-14,10.5c0,1.982,0.741,3.833,2.016,5.414L2,25.667l5.613-1.441c2.339,1.317,5.237,2.107,8.387,2.107c7.732,0,14-4.701,14-10.5C30,10.034,23.732,5.333,16,5.333z" transform="translate(5, -33)"></path><path  idx="0" transform="scale(.8) translate(9.5, -37)" d="M24.778,21.419 19.276,15.917 24.777,10.415 21.949,7.585 16.447,13.087 10.945,7.585 8.117,10.415 13.618,15.917 8.116,21.419 10.946,24.248 16.447,18.746 21.948,24.248z"><title>Remove vertex.</title></path></g><g  transform="translate(3283, 1399)" id="v-994"><circle  idx="1" r="10"></circle><path  idx="1" d="M16,5.333c-7.732,0-14,4.701-14,10.5c0,1.982,0.741,3.833,2.016,5.414L2,25.667l5.613-1.441c2.339,1.317,5.237,2.107,8.387,2.107c7.732,0,14-4.701,14-10.5C30,10.034,23.732,5.333,16,5.333z" transform="translate(5, -33)"></path><path  idx="1" transform="scale(.8) translate(9.5, -37)" d="M24.778,21.419 19.276,15.917 24.777,10.415 21.949,7.585 16.447,13.087 10.945,7.585 8.117,10.415 13.618,15.917 8.116,21.419 10.946,24.248 16.447,18.746 21.948,24.248z"><title>Remove vertex.</title></path></g></g><g  id="v-1007" display="none"><g  id="v-995"><path  end="source" d="M 26 0 L 0 13 L 26 26 z"></path></g><g  id="v-996"><path  end="target" d="M 26 0 L 0 13 L 26 26 z"></path></g></g><g  id="v-1006" display="none"><g  id="v-992" transform="translate(1061.1753225311058, 1053.7646671045527) "><g  event="remove"><circle r="11"></circle><path transform="scale(.8) translate(-16, -16)" d="M24.778,21.419 19.276,15.917 24.777,10.415 21.949,7.585 16.447,13.087 10.945,7.585 8.117,10.415 13.618,15.917 8.116,21.419 10.946,24.248 16.447,18.746 21.948,24.248z"></path><title>Remove link.</title></g><g  event="link:options"><circle r="11" transform="translate(25)"></circle><path fill="white" transform="scale(.55) translate(29, -16)" d="M31.229,17.736c0.064-0.571,0.104-1.148,0.104-1.736s-0.04-1.166-0.104-1.737l-4.377-1.557c-0.218-0.716-0.504-1.401-0.851-2.05l1.993-4.192c-0.725-0.91-1.549-1.734-2.458-2.459l-4.193,1.994c-0.647-0.347-1.334-0.632-2.049-0.849l-1.558-4.378C17.165,0.708,16.588,0.667,16,0.667s-1.166,0.041-1.737,0.105L12.707,5.15c-0.716,0.217-1.401,0.502-2.05,0.849L6.464,4.005C5.554,4.73,4.73,5.554,4.005,6.464l1.994,4.192c-0.347,0.648-0.632,1.334-0.849,2.05l-4.378,1.557C0.708,14.834,0.667,15.412,0.667,16s0.041,1.165,0.105,1.736l4.378,1.558c0.217,0.715,0.502,1.401,0.849,2.049l-1.994,4.193c0.725,0.909,1.549,1.733,2.459,2.458l4.192-1.993c0.648,0.347,1.334,0.633,2.05,0.851l1.557,4.377c0.571,0.064,1.148,0.104,1.737,0.104c0.588,0,1.165-0.04,1.736-0.104l1.558-4.377c0.715-0.218,1.399-0.504,2.049-0.851l4.193,1.993c0.909-0.725,1.733-1.549,2.458-2.458l-1.993-4.193c0.347-0.647,0.633-1.334,0.851-2.049L31.229,17.736zM16,20.871c-2.69,0-4.872-2.182-4.872-4.871c0-2.69,2.182-4.872,4.872-4.872c2.689,0,4.871,2.182,4.871,4.872C20.871,18.689,18.689,20.871,16,20.871z"></path><title>Link options.</title></g></g></g></g><g   id="j_79" ><path  stroke="#707070" d="M 1024 1039 L 1165 1095 C 1171 1097.6666666666665 1177.3333333333333 1099.3333333333333 1184 1100 L 3973 1398 C 3979.666666666666 1398.6666666666665 3985.9999999999995 1400.6666666666665 3992 1404 L 4133 1485" id="v-1019" stroke-width="2" stroke-dasharray="30 30" fill="none" style="opacity: 1;"></path><path  fill="black" stroke="black" d="M 0 0 0 0" transform="matrix(0.9284766912460327,0.3713906705379486,-0.3713906705379486,0.9284766912460327,1024,1039)"></path><path  fill="#707070" stroke="#707070" d="M 20 0 L 0 10 L 20 20 z" id="v-1021" transform="matrix(-0.868253767490387,-0.49612030386924744,0.49612030386924744,-0.868253767490387,4128.03857421875,1493.392578125)" style="opacity: 1;"></path><path  d="M 1024 1039 L 1165 1095 C 1171 1097.6666666666665 1177.3333333333333 1099.3333333333333 1184 1100 L 3973 1398 C 3979.666666666666 1398.6666666666665 3985.9999999999995 1400.6666666666665 3992 1404 L 4133 1485" id="v-1020" fill="none" style="cursor: auto; pointer-events: visiblepainted;"></path><g ><g id="v-1013"  label-idx="0" cursor="move" transform="matrix(1,0,0,1,2584.085205078125,1249.5968017578125)" style="cursor: default; opacity: 1;"><rect joint-selector="rect" id="v-1016" fill="#ffffff" rx="3" ry="3" stroke="#ffffff" stroke-width="20px" pointer-events="none" width="58.45546340942383" height="36.63005447387695" transform="matrix(1,0,0,1,-29.200000762939453,-18.299999237060547)"></rect><text joint-selector="text" id="v-1015" font-size="24px" xml:space="preserve" y="0.8em" fill="#707070" text-anchor="middle" pointer-events="none" font-family="Open Sans" font-weight="normal" transform="matrix(1,0,0,1,0,-10)"><tspan  dy="0">Uses</tspan></text></g><g id="v-1014"  label-idx="1" cursor="move" transform="matrix(1,0,0,1,2574.085205078125,1276.5968017578125)" style="cursor: default; opacity: 1;"><rect joint-selector="rect" id="v-1018" fill="#ffffff" rx="3" ry="3"  width="0" height="0" transform="matrix(1,0,0,1,0,0)" display="none"></rect><text joint-selector="text" id="v-1017" fill="#000000" font-size="14" text-anchor="middle" pointer-events="none"></text></g></g><g  display="none" style="display: none;"><g  transform="translate(1174, 1099)" id="v-1009"><circle  idx="0" r="10"></circle><path  idx="0" d="M16,5.333c-7.732,0-14,4.701-14,10.5c0,1.982,0.741,3.833,2.016,5.414L2,25.667l5.613-1.441c2.339,1.317,5.237,2.107,8.387,2.107c7.732,0,14-4.701,14-10.5C30,10.034,23.732,5.333,16,5.333z" transform="translate(5, -33)"></path><path  idx="0" transform="scale(.8) translate(9.5, -37)" d="M24.778,21.419 19.276,15.917 24.777,10.415 21.949,7.585 16.447,13.087 10.945,7.585 8.117,10.415 13.618,15.917 8.116,21.419 10.946,24.248 16.447,18.746 21.948,24.248z"><title>Remove vertex.</title></path></g><g  transform="translate(3983, 1399)" id="v-1010"><circle  idx="1" r="10"></circle><path  idx="1" d="M16,5.333c-7.732,0-14,4.701-14,10.5c0,1.982,0.741,3.833,2.016,5.414L2,25.667l5.613-1.441c2.339,1.317,5.237,2.107,8.387,2.107c7.732,0,14-4.701,14-10.5C30,10.034,23.732,5.333,16,5.333z" transform="translate(5, -33)"></path><path  idx="1" transform="scale(.8) translate(9.5, -37)" d="M24.778,21.419 19.276,15.917 24.777,10.415 21.949,7.585 16.447,13.087 10.945,7.585 8.117,10.415 13.618,15.917 8.116,21.419 10.946,24.248 16.447,18.746 21.948,24.248z"><title>Remove vertex.</title></path></g></g><g  id="v-1023" display="none"><g  id="v-1011"><path  end="source" d="M 26 0 L 0 13 L 26 26 z"></path></g><g  id="v-1012"><path  end="target" d="M 26 0 L 0 13 L 26 26 z"></path></g></g><g  id="v-1022" display="none"><g  id="v-1008" transform="translate(1061.1753225311058, 1053.7646671045527) "><g  event="remove"><circle r="11"></circle><path transform="scale(.8) translate(-16, -16)" d="M24.778,21.419 19.276,15.917 24.777,10.415 21.949,7.585 16.447,13.087 10.945,7.585 8.117,10.415 13.618,15.917 8.116,21.419 10.946,24.248 16.447,18.746 21.948,24.248z"></path><title>Remove link.</title></g><g  event="link:options"><circle r="11" transform="translate(25)"></circle><path fill="white" transform="scale(.55) translate(29, -16)" d="M31.229,17.736c0.064-0.571,0.104-1.148,0.104-1.736s-0.04-1.166-0.104-1.737l-4.377-1.557c-0.218-0.716-0.504-1.401-0.851-2.05l1.993-4.192c-0.725-0.91-1.549-1.734-2.458-2.459l-4.193,1.994c-0.647-0.347-1.334-0.632-2.049-0.849l-1.558-4.378C17.165,0.708,16.588,0.667,16,0.667s-1.166,0.041-1.737,0.105L12.707,5.15c-0.716,0.217-1.401,0.502-2.05,0.849L6.464,4.005C5.554,4.73,4.73,5.554,4.005,6.464l1.994,4.192c-0.347,0.648-0.632,1.334-0.849,2.05l-4.378,1.557C0.708,14.834,0.667,15.412,0.667,16s0.041,1.165,0.105,1.736l4.378,1.558c0.217,0.715,0.502,1.401,0.849,2.049l-1.994,4.193c0.725,0.909,1.549,1.733,2.459,2.458l4.192-1.993c0.648,0.347,1.334,0.633,2.05,0.851l1.557,4.377c0.571,0.064,1.148,0.104,1.737,0.104c0.588,0,1.165-0.04,1.736-0.104l1.558-4.377c0.715-0.218,1.399-0.504,2.049-0.851l4.193,1.993c0.909-0.725,1.733-1.549,2.458-2.458l-1.993-4.193c0.347-0.647,0.633-1.334,0.851-2.049L31.229,17.736zM16,20.871c-2.69,0-4.872-2.182-4.872-4.871c0-2.69,2.182-4.872,4.872-4.872c2.689,0,4.871,2.182,4.871,4.872C20.871,18.689,18.689,20.871,16,20.871z"></path><title>Link options.</title></g></g></g></g><g   id="j_80" ><path  stroke="#707070" d="M 4433 2099 L 4677 1807 C 4681 1801.6666666666665 4683 1795.6666666666665 4683 1789 L 4683 1409 C 4683 1402.3333333333333 4679.666666666666 1398.6666666666665 4673 1398 L 1184 1100 C 1177.3333333333333 1099.3333333333333 1171 1097.6666666666665 1165 1095 L 1024 1039" id="v-1039" stroke-width="2" stroke-dasharray="30 30" fill="none" style="opacity: 1;"></path><path  fill="black" stroke="black" d="M 0 0 0 0" transform="matrix(0.6401844024658203,-0.7682212591171265,0.7682212591171265,0.6401844024658203,4433,2099)"></path><path  fill="#707070" stroke="#707070" d="M 20 0 L 0 10 L 20 20 z" id="v-1041" transform="matrix(0.9284766912460327,0.3713906705379486,-0.3713906705379486,0.9284766912460327,1027.7139892578125,1029.7152099609375)" style="opacity: 1;"></path><path  d="M 4433 2099 L 4677 1807 C 4681 1801.6666666666665 4683 1795.6666666666665 4683 1789 L 4683 1409 C 4683 1402.3333333333333 4679.666666666666 1398.6666666666665 4673 1398 L 1184 1100 C 1177.3333333333333 1099.3333333333333 1171 1097.6666666666665 1165 1095 L 1024 1039" id="v-1040" fill="none" style="cursor: auto; pointer-events: visiblepainted;"></path><g ><g id="v-1033"  label-idx="0" cursor="move" transform="matrix(1,0,0,1,3239.915283203125,1275.598388671875)" style="cursor: default; opacity: 1;"><rect joint-selector="rect" id="v-1036" fill="#ffffff" rx="3" ry="3" stroke="#ffffff" stroke-width="20px" pointer-events="none" width="180.86090087890625" height="65.4300537109375" transform="matrix(1,0,0,1,-90.4000015258789,-32.70000076293945)"></rect><text joint-selector="text" id="v-1035" font-size="24px" xml:space="preserve" y="0.8em" fill="#707070" text-anchor="middle" pointer-events="none" font-family="Open Sans" font-weight="normal" transform="matrix(1,0,0,1,0,-24.399999618530273)"><tspan  dy="0">Makes requests</tspan><tspan dy="1.2em" x="0" >to</tspan></text></g><g id="v-1034"  label-idx="1" cursor="move" transform="matrix(1,0,0,1,3229.915283203125,1317.598388671875)" style="cursor: default; opacity: 1;"><rect joint-selector="rect" id="v-1038" fill="#ffffff" rx="3" ry="3"  width="0" height="0" transform="matrix(1,0,0,1,0,0)" display="none"></rect><text joint-selector="text" id="v-1037" fill="#000000" font-size="14" text-anchor="middle" pointer-events="none"></text></g></g><g  display="none" style="display: none;"><g  transform="translate(4683, 1799)" id="v-1028"><circle  idx="0" r="10"></circle><path  idx="0" d="M16,5.333c-7.732,0-14,4.701-14,10.5c0,1.982,0.741,3.833,2.016,5.414L2,25.667l5.613-1.441c2.339,1.317,5.237,2.107,8.387,2.107c7.732,0,14-4.701,14-10.5C30,10.034,23.732,5.333,16,5.333z" transform="translate(5, -33)"></path><path  idx="0" transform="scale(.8) translate(9.5, -37)" d="M24.778,21.419 19.276,15.917 24.777,10.415 21.949,7.585 16.447,13.087 10.945,7.585 8.117,10.415 13.618,15.917 8.116,21.419 10.946,24.248 16.447,18.746 21.948,24.248z"><title>Remove vertex.</title></path></g><g  transform="translate(4683, 1399)" id="v-1029"><circle  idx="1" r="10"></circle><path  idx="1" d="M16,5.333c-7.732,0-14,4.701-14,10.5c0,1.982,0.741,3.833,2.016,5.414L2,25.667l5.613-1.441c2.339,1.317,5.237,2.107,8.387,2.107c7.732,0,14-4.701,14-10.5C30,10.034,23.732,5.333,16,5.333z" transform="translate(5, -33)"></path><path  idx="1" transform="scale(.8) translate(9.5, -37)" d="M24.778,21.419 19.276,15.917 24.777,10.415 21.949,7.585 16.447,13.087 10.945,7.585 8.117,10.415 13.618,15.917 8.116,21.419 10.946,24.248 16.447,18.746 21.948,24.248z"><title>Remove vertex.</title></path></g><g  transform="translate(1174, 1099)" id="v-1030"><circle  idx="2" r="10"></circle><path  idx="2" d="M16,5.333c-7.732,0-14,4.701-14,10.5c0,1.982,0.741,3.833,2.016,5.414L2,25.667l5.613-1.441c2.339,1.317,5.237,2.107,8.387,2.107c7.732,0,14-4.701,14-10.5C30,10.034,23.732,5.333,16,5.333z" transform="translate(5, -33)"></path><path  idx="2" transform="scale(.8) translate(9.5, -37)" d="M24.778,21.419 19.276,15.917 24.777,10.415 21.949,7.585 16.447,13.087 10.945,7.585 8.117,10.415 13.618,15.917 8.116,21.419 10.946,24.248 16.447,18.746 21.948,24.248z"><title>Remove vertex.</title></path></g></g><g  id="v-1043" display="none"><g  id="v-1031"><path  end="source" d="M 26 0 L 0 13 L 26 26 z"></path></g><g  id="v-1032"><path  end="target" d="M 26 0 L 0 13 L 26 26 z"></path></g></g><g  id="v-1042" display="none"><g  id="v-1027" transform="translate(4458.648710563909, 2068.305641456306) "><g  event="remove"><circle r="11"></circle><path transform="scale(.8) translate(-16, -16)" d="M24.778,21.419 19.276,15.917 24.777,10.415 21.949,7.585 16.447,13.087 10.945,7.585 8.117,10.415 13.618,15.917 8.116,21.419 10.946,24.248 16.447,18.746 21.948,24.248z"></path><title>Remove link.</title></g><g  event="link:options"><circle r="11" transform="translate(25)"></circle><path fill="white" transform="scale(.55) translate(29, -16)" d="M31.229,17.736c0.064-0.571,0.104-1.148,0.104-1.736s-0.04-1.166-0.104-1.737l-4.377-1.557c-0.218-0.716-0.504-1.401-0.851-2.05l1.993-4.192c-0.725-0.91-1.549-1.734-2.458-2.459l-4.193,1.994c-0.647-0.347-1.334-0.632-2.049-0.849l-1.558-4.378C17.165,0.708,16.588,0.667,16,0.667s-1.166,0.041-1.737,0.105L12.707,5.15c-0.716,0.217-1.401,0.502-2.05,0.849L6.464,4.005C5.554,4.73,4.73,5.554,4.005,6.464l1.994,4.192c-0.347,0.648-0.632,1.334-0.849,2.05l-4.378,1.557C0.708,14.834,0.667,15.412,0.667,16s0.041,1.165,0.105,1.736l4.378,1.558c0.217,0.715,0.502,1.401,0.849,2.049l-1.994,4.193c0.725,0.909,1.549,1.733,2.459,2.458l4.192-1.993c0.648,0.347,1.334,0.633,2.05,0.851l1.557,4.377c0.571,0.064,1.148,0.104,1.737,0.104c0.588,0,1.165-0.04,1.736-0.104l1.558-4.377c0.715-0.218,1.399-0.504,2.049-0.851l4.193,1.993c0.909-0.725,1.733-1.549,2.458-2.458l-1.993-4.193c0.347-0.647,0.633-1.334,0.851-2.049L31.229,17.736zM16,20.871c-2.69,0-4.872-2.182-4.872-4.871c0-2.69,2.182-4.872,4.872-4.872c2.689,0,4.871,2.182,4.871,4.872C20.871,18.689,18.689,20.871,16,20.871z"></path><title>Link options.</title></g></g></g></g><g   id="j_58"  transform="translate(574,1449)" style=""><g  id="v-737" style="opacity: 1;"><rect  id="v-738" rx="20" ry="20" stroke="#78a8d8" stroke-width="2" pointer-events="visiblePainted" fill="#85bbf0" width="450" height="300" style="fill: rgb(133, 187, 240); stroke: rgb(120, 168, 216);"></rect><text  id="v-739" font-size="34" xml:space="preserve" y="0.8em" font-weight="bold" text-anchor="middle" pointer-events="visible" font-family="Open Sans" fill="#000000" transform="matrix(1,0,0,1,225,83.0999984741211)" style="fill: rgb(0, 0, 0);"><tspan  dy="0">Lambda</tspan></text><text  id="v-740" font-size="17" xml:space="preserve" y="0.8em" text-anchor="middle" font-family="Open Sans" fill="#000000" transform="matrix(1,0,0,1,225,125.5999984741211)" style="fill: rgb(0, 0, 0);"><tspan  dy="0">[Container: AWS Lambda, Go]</tspan></text><text  id="v-741" font-size="24" xml:space="preserve" y="0.8em" text-anchor="middle" font-family="Open Sans" fill="#000000" transform="matrix(1,0,0,1,225,156.89999389648438)" style="fill: rgb(0, 0, 0);"><tspan  dy="0">Executes code for generating and</tspan><tspan dy="1.2em" x="0" >returning new LPA ID</tspan></text><g  id="v-742" color="#000000" transform="matrix(1,0,0,1,222.5,226.89999389648438)" style="fill: rgb(0, 0, 0);" display="none"><g ></g><g ></g><g ></g><g ></g></g><image  id="v-743"></image></g></g><g   id="j_60"  transform="translate(1324,1449)" style=""><g  id="v-752" style="opacity: 1;"><rect  id="v-753" rx="20" ry="20" stroke="#78a8d8" stroke-width="2" pointer-events="visiblePainted" fill="#85bbf0" width="450" height="300" style="fill: rgb(133, 187, 240); stroke: rgb(120, 168, 216);"></rect><text  id="v-754" font-size="34" xml:space="preserve" y="0.8em" font-weight="bold" text-anchor="middle" pointer-events="visible" font-family="Open Sans" fill="#000000" transform="matrix(1,0,0,1,225,83.0999984741211)" style="fill: rgb(0, 0, 0);"><tspan  dy="0">IAM</tspan></text><text  id="v-755" font-size="17" xml:space="preserve" y="0.8em" text-anchor="middle" font-family="Open Sans" fill="#000000" transform="matrix(1,0,0,1,225,125.5999984741211)" style="fill: rgb(0, 0, 0);"><tspan  dy="0">[Container: AWS IAM]</tspan></text><text  id="v-756" font-size="24" xml:space="preserve" y="0.8em" text-anchor="middle" font-family="Open Sans" fill="#000000" transform="matrix(1,0,0,1,225,156.89999389648438)" style="fill: rgb(0, 0, 0);"><tspan  dy="0">Manages permissions to API</tspan><tspan dy="1.2em" x="0" >Gateway</tspan></text><g  id="v-757" color="#000000" transform="matrix(1,0,0,1,222.5,226.89999389648438)" style="fill: rgb(0, 0, 0);" display="none"><g ></g><g ></g><g ></g><g ></g></g><image  id="v-758"></image></g></g><g   id="j_61"  transform="translate(2074,799)" style=""><g  id="v-768" style="opacity: 1;"><rect  id="v-769" rx="20" ry="20" stroke="#78a8d8" stroke-width="2" pointer-events="visiblePainted" fill="#85bbf0" width="450" height="300" style="fill: rgb(133, 187, 240); stroke: rgb(120, 168, 216);"></rect><text  id="v-770" font-size="34" xml:space="preserve" y="0.8em" font-weight="bold" text-anchor="middle" pointer-events="visible" font-family="Open Sans" fill="#000000" transform="matrix(1,0,0,1,225,83.0999984741211)" style="fill: rgb(0, 0, 0);"><tspan  dy="0">Certificate Manager</tspan></text><text  id="v-771" font-size="17" xml:space="preserve" y="0.8em" text-anchor="middle" font-family="Open Sans" fill="#000000" transform="matrix(1,0,0,1,225,125.5999984741211)" style="fill: rgb(0, 0, 0);"><tspan  dy="0">[Container: AWS Certificate Manager]</tspan></text><text  id="v-772" font-size="24" xml:space="preserve" y="0.8em" text-anchor="middle" font-family="Open Sans" fill="#000000" transform="matrix(1,0,0,1,225,156.89999389648438)" style="fill: rgb(0, 0, 0);"><tspan  dy="0">Generate a valid cert for SSL</tspan><tspan dy="1.2em" x="0" >connectivity to the API</tspan></text><g  id="v-773" color="#000000" transform="matrix(1,0,0,1,222.5,226.89999389648438)" style="fill: rgb(0, 0, 0);" display="none"><g ></g><g ></g><g ></g><g ></g></g><image  id="v-774"></image></g></g><g   id="j_62"  transform="translate(1324,799)" style=""><g  id="v-778" style="opacity: 1;"><rect  id="v-779" rx="20" ry="20" stroke="#78a8d8" stroke-width="2" pointer-events="visiblePainted" fill="#85bbf0" width="450" height="300" style="fill: rgb(133, 187, 240); stroke: rgb(120, 168, 216);"></rect><text  id="v-780" font-size="34" xml:space="preserve" y="0.8em" font-weight="bold" text-anchor="middle" pointer-events="visible" font-family="Open Sans" fill="#000000" transform="matrix(1,0,0,1,225,83.0999984741211)" style="fill: rgb(0, 0, 0);"><tspan  dy="0">DNS</tspan></text><text  id="v-781" font-size="17" xml:space="preserve" y="0.8em" text-anchor="middle" font-family="Open Sans" fill="#000000" transform="matrix(1,0,0,1,225,125.5999984741211)" style="fill: rgb(0, 0, 0);"><tspan  dy="0">[Container: AWS Route 53]</tspan></text><text  id="v-782" font-size="24" xml:space="preserve" y="0.8em" text-anchor="middle" font-family="Open Sans" fill="#000000" transform="matrix(1,0,0,1,225,156.89999389648438)" style="fill: rgb(0, 0, 0);"><tspan  dy="0">Generate a friendly DNS Name for</tspan><tspan dy="1.2em" x="0" >the API</tspan></text><g  id="v-783" color="#000000" transform="matrix(1,0,0,1,222.5,226.89999389648438)" style="fill: rgb(0, 0, 0);" display="none"><g ></g><g ></g><g ></g><g ></g></g><image  id="v-784"></image></g></g><g   id="j_63"  transform="translate(574,799)" style=""><g  id="v-791" style="opacity: 1;"><rect  id="v-792" rx="20" ry="20" stroke="#78a8d8" stroke-width="2" pointer-events="visiblePainted" fill="#85bbf0" width="450" height="300" style="fill: rgb(133, 187, 240); stroke: rgb(120, 168, 216);"></rect><text  id="v-793" font-size="34" xml:space="preserve" y="0.8em" font-weight="bold" text-anchor="middle" pointer-events="visible" font-family="Open Sans" fill="#000000" transform="matrix(1,0,0,1,225,83.0999984741211)" style="fill: rgb(0, 0, 0);"><tspan  dy="0">API Gateway</tspan></text><text  id="v-794" font-size="17" xml:space="preserve" y="0.8em" text-anchor="middle" font-family="Open Sans" fill="#000000" transform="matrix(1,0,0,1,225,125.5999984741211)" style="fill: rgb(0, 0, 0);"><tspan  dy="0">[Container: AWS API Gateway v2, OpenAPI]</tspan></text><text  id="v-795" font-size="24" xml:space="preserve" y="0.8em" text-anchor="middle" font-family="Open Sans" fill="#000000" transform="matrix(1,0,0,1,225,156.89999389648438)" style="fill: rgb(0, 0, 0);"><tspan  dy="0">Provides a REST API for</tspan><tspan dy="1.2em" x="0" >communication to the service.</tspan></text><g  id="v-796" color="#000000" transform="matrix(1,0,0,1,222.5,226.89999389648438)" style="fill: rgb(0, 0, 0);" display="none"><g ></g><g ></g><g ></g><g ></g></g><image  id="v-797"></image></g></g><g   id="j_64"  transform="translate(199,199)" style=""><g  id="v-801" style="opacity: 1;"><rect  id="v-802" rx="20" ry="20" stroke="#8a8a8a" stroke-width="2" pointer-events="visiblePainted" fill="#999999" width="450" height="300" style="fill: rgb(153, 153, 153); stroke: rgb(138, 138, 138);"></rect><text  id="v-803" font-size="34" xml:space="preserve" y="0.8em" font-weight="bold" text-anchor="middle" pointer-events="visible" font-family="Open Sans" fill="#ffffff" transform="matrix(1,0,0,1,225,98.0999984741211)" style="fill: rgb(255, 255, 255);"><tspan  dy="0">LPA Case Management</tspan></text><text  id="v-804" font-size="17" xml:space="preserve" y="0.8em" text-anchor="middle" font-family="Open Sans" fill="#ffffff" transform="matrix(1,0,0,1,225,140.60000610351562)" style="fill: rgb(255, 255, 255);"><tspan  dy="0">[Software System]</tspan></text><text  id="v-805" font-size="24" xml:space="preserve" y="0.8em" text-anchor="middle" font-family="Open Sans" fill="#ffffff" transform="matrix(1,0,0,1,225,171.89999389648438)" style="fill: rgb(255, 255, 255);"><tspan  dy="0">PKA Sirius.</tspan></text><g  id="v-806" color="#ffffff" transform="matrix(1,0,0,1,222.5,211.89999389648438)" style="fill: rgb(255, 255, 255);" display="none"><g ></g><g ></g><g ></g><g ></g></g><image  id="v-807"></image></g></g><g   id="j_65"  transform="translate(949,199)" style=""><g  id="v-811" style="opacity: 1;"><rect  id="v-812" rx="20" ry="20" stroke="#8a8a8a" stroke-width="2" pointer-events="visiblePainted" fill="#999999" width="450" height="300" style="fill: rgb(153, 153, 153); stroke: rgb(138, 138, 138);"></rect><text  id="v-813" font-size="34" xml:space="preserve" y="0.8em" font-weight="bold" text-anchor="middle" pointer-events="visible" font-family="Open Sans" fill="#ffffff" transform="matrix(1,0,0,1,225,83.0999984741211)" style="fill: rgb(255, 255, 255);"><tspan  dy="0">LPA Public API</tspan></text><text  id="v-814" font-size="17" xml:space="preserve" y="0.8em" text-anchor="middle" font-family="Open Sans" fill="#ffffff" transform="matrix(1,0,0,1,225,125.5999984741211)" style="fill: rgb(255, 255, 255);"><tspan  dy="0">[Software System]</tspan></text><text  id="v-815" font-size="24" xml:space="preserve" y="0.8em" text-anchor="middle" font-family="Open Sans" fill="#ffffff" transform="matrix(1,0,0,1,225,156.89999389648438)" style="fill: rgb(255, 255, 255);"><tspan  dy="0">API Integration for external</tspan><tspan dy="1.2em" x="0" >integration.</tspan></text><g  id="v-816" color="#ffffff" transform="matrix(1,0,0,1,222.5,226.89999389648438)" style="fill: rgb(255, 255, 255);" display="none"><g ></g><g ></g><g ></g><g ></g></g><image  id="v-817"></image></g></g><g   id="j_66"  transform="translate(2733,1399)" style=""><g  id="v-824" style="opacity: 1;"><rect  x="0" y="160" width="400" height="240" rx="70" id="v-826" stroke="#073b6f" stroke-width="2" pointer-events="visiblePainted" fill="#08427b" style="fill: rgb(8, 66, 123); stroke: rgb(7, 59, 111);"></rect><circle  cx="200" cy="88.88888888888889" r="88.88888888888889" id="v-825" stroke="#073b6f" stroke-width="2" pointer-events="visiblePainted" fill="#08427b" style="fill: rgb(8, 66, 123); stroke: rgb(7, 59, 111);"></circle><line  x1="80" y1="266.6666666666667" x2="80" y2="400" id="v-832" stroke="#073b6f" stroke-width="2" style="stroke: rgb(7, 59, 111);"></line><line  x1="320" y1="266.6666666666667" x2="320" y2="400" id="v-833" stroke="#073b6f" stroke-width="2" style="stroke: rgb(7, 59, 111);"></line><text  id="v-827" font-size="34" xml:space="preserve" y="0.8em" font-weight="bold" text-anchor="middle" pointer-events="visible" font-family="Open Sans" fill="#ffffff" transform="matrix(1,0,0,1,200,198.10000610351562)" style="fill: rgb(255, 255, 255);"><tspan  dy="0">Third Party Software</tspan></text><text  id="v-828" font-size="17" xml:space="preserve" y="0.8em" text-anchor="middle" font-family="Open Sans" fill="#ffffff" transform="matrix(1,0,0,1,200,240.60000610351562)" style="fill: rgb(255, 255, 255);"><tspan  dy="0">[Person]</tspan></text><text  id="v-829" font-size="24" xml:space="preserve" y="0.8em" text-anchor="middle" font-family="Open Sans" fill="#ffffff" transform="matrix(1,0,0,1,200,271.8999938964844)" style="fill: rgb(255, 255, 255);"><tspan  dy="0">External API software</tspan><tspan dy="1.2em" x="0" >interacting with a Lasting Power</tspan><tspan dy="1.2em" x="0" >of Attorney.</tspan></text><g  id="v-830" font-weight="normal" text-anchor="middle" color="#ffffff" transform="matrix(1,0,0,1,197.5,371.8999938964844)" style="fill: rgb(255, 255, 255);" display="none"><g ></g><g ></g><g ></g><g ></g></g><image  id="v-831"></image></g></g><g   id="j_67"  transform="translate(3433,1399)" style=""><g  id="v-837" style="opacity: 1;"><rect  x="0" y="160" width="400" height="240" rx="70" id="v-839" stroke="#073b6f" stroke-width="2" pointer-events="visiblePainted" fill="#08427b" style="fill: rgb(8, 66, 123); stroke: rgb(7, 59, 111);"></rect><circle  cx="200" cy="88.88888888888889" r="88.88888888888889" id="v-838" stroke="#073b6f" stroke-width="2" pointer-events="visiblePainted" fill="#08427b" style="fill: rgb(8, 66, 123); stroke: rgb(7, 59, 111);"></circle><line  x1="80" y1="266.6666666666667" x2="80" y2="400" id="v-845" stroke="#073b6f" stroke-width="2" style="stroke: rgb(7, 59, 111);"></line><line  x1="320" y1="266.6666666666667" x2="320" y2="400" id="v-846" stroke="#073b6f" stroke-width="2" style="stroke: rgb(7, 59, 111);"></line><text  id="v-840" font-size="34" xml:space="preserve" y="0.8em" font-weight="bold" text-anchor="middle" pointer-events="visible" font-family="Open Sans" fill="#ffffff" transform="matrix(1,0,0,1,200,213.10000610351562)" style="fill: rgb(255, 255, 255);"><tspan  dy="0">Donor</tspan></text><text  id="v-841" font-size="17" xml:space="preserve" y="0.8em" text-anchor="middle" font-family="Open Sans" fill="#ffffff" transform="matrix(1,0,0,1,200,255.60000610351562)" style="fill: rgb(255, 255, 255);"><tspan  dy="0">[Person]</tspan></text><text  id="v-842" font-size="24" xml:space="preserve" y="0.8em" text-anchor="middle" font-family="Open Sans" fill="#ffffff" transform="matrix(1,0,0,1,200,286.8999938964844)" style="fill: rgb(255, 255, 255);"><tspan  dy="0">Donor drafting the Lasting</tspan><tspan dy="1.2em" x="0" >Power of Attorney.</tspan></text><g  id="v-843" font-weight="normal" text-anchor="middle" color="#ffffff" transform="matrix(1,0,0,1,197.5,356.8999938964844)" style="fill: rgb(255, 255, 255);" display="none"><g ></g><g ></g><g ></g><g ></g></g><image  id="v-844"></image></g></g><g   id="j_68"  transform="translate(4133,1399)" style=""><g  id="v-847" style="opacity: 1;"><rect  x="0" y="160" width="400" height="240" rx="70" id="v-849" stroke="#073b6f" stroke-width="2" pointer-events="visiblePainted" fill="#08427b" style="fill: rgb(8, 66, 123); stroke: rgb(7, 59, 111);"></rect><circle  cx="200" cy="88.88888888888889" r="88.88888888888889" id="v-848" stroke="#073b6f" stroke-width="2" pointer-events="visiblePainted" fill="#08427b" style="fill: rgb(8, 66, 123); stroke: rgb(7, 59, 111);"></circle><line  x1="80" y1="266.6666666666667" x2="80" y2="400" id="v-855" stroke="#073b6f" stroke-width="2" style="stroke: rgb(7, 59, 111);"></line><line  x1="320" y1="266.6666666666667" x2="320" y2="400" id="v-856" stroke="#073b6f" stroke-width="2" style="stroke: rgb(7, 59, 111);"></line><text  id="v-850" font-size="34" xml:space="preserve" y="0.8em" font-weight="bold" text-anchor="middle" pointer-events="visible" font-family="Open Sans" fill="#ffffff" transform="matrix(1,0,0,1,200,228.10000610351562)" style="fill: rgb(255, 255, 255);"><tspan  dy="0">Case Worker</tspan></text><text  id="v-851" font-size="17" xml:space="preserve" y="0.8em" text-anchor="middle" font-family="Open Sans" fill="#ffffff" transform="matrix(1,0,0,1,200,270.6000061035156)" style="fill: rgb(255, 255, 255);"><tspan  dy="0">[Person]</tspan></text><text  id="v-852" font-size="24" xml:space="preserve" y="0.8em" text-anchor="middle" font-family="Open Sans" fill="#ffffff" transform="matrix(1,0,0,1,200,301.8999938964844)" style="fill: rgb(255, 255, 255);"><tspan  dy="0">Case worker.</tspan></text><g  id="v-853" font-weight="normal" text-anchor="middle" color="#ffffff" transform="matrix(1,0,0,1,197.5,341.8999938964844)" style="fill: rgb(255, 255, 255);" display="none"><g ></g><g ></g><g ></g><g ></g></g><image  id="v-854"></image></g></g><g   id="j_69"  transform="translate(4083,2099)" style=""><g  id="v-863" style="opacity: 1;"><rect  id="v-864" rx="20" ry="20" stroke="#0f5eaa" stroke-width="2" pointer-events="visiblePainted" fill="#1168bd" width="450" height="300" style="fill: rgb(17, 104, 189); stroke: rgb(15, 94, 170);"></rect><text  id="v-865" font-size="34" xml:space="preserve" y="0.8em" font-weight="bold" text-anchor="middle" pointer-events="visible" font-family="Open Sans" fill="#ffffff" transform="matrix(1,0,0,1,225,40.599998474121094)" style="fill: rgb(255, 255, 255);"><tspan  dy="0">Make and Register a</tspan><tspan dy="1.2em" x="0" >Lasting Power of</tspan><tspan dy="1.2em" x="0" >Attorney Online</tspan></text><text  id="v-866" font-size="17" xml:space="preserve" y="0.8em" text-anchor="middle" font-family="Open Sans" fill="#ffffff" transform="matrix(1,0,0,1,225,168.10000610351562)" style="fill: rgb(255, 255, 255);"><tspan  dy="0">[Software System]</tspan></text><text  id="v-867" font-size="24" xml:space="preserve" y="0.8em" text-anchor="middle" font-family="Open Sans" fill="#ffffff" transform="matrix(1,0,0,1,225,199.39999389648438)" style="fill: rgb(255, 255, 255);"><tspan  dy="0">Allows users to draft a Lasting</tspan><tspan dy="1.2em" x="0" >Power of Attorney online.</tspan></text><g  id="v-868" color="#ffffff" transform="matrix(1,0,0,1,222.5,269.3999938964844)" style="fill: rgb(255, 255, 255);" display="none"><g ></g><g ></g><g ></g><g ></g></g><image  id="v-869"></image></g></g><g   id="j_70"  transform="translate(574,2099)" style=""><g  id="v-870" style="opacity: 1;"><path  d="M 0,30 a 225,30 0,0,0 450 0 a 225,30 0,0,0 -450 0 l 0,240 a 225,30 0,0,0 450 0 l 0,-240" id="v-871" stroke="#3c7fc0" stroke-width="2" pointer-events="visiblePainted" fill="#438dd5" style="fill: rgb(67, 141, 213); stroke: rgb(60, 127, 192);"></path><rect  id="v-872" stroke-width="0" pointer-events="visiblePainted" fill="none" stroke="none" width="450" height="270" x="0" y="30"></rect><text  id="v-873" font-size="34" xml:space="preserve" y="0.8em" font-weight="bold" text-anchor="middle" pointer-events="visible" font-family="Open Sans" fill="#ffffff" transform="matrix(1,0,0,1,225,128.10000610351562)" style="fill: rgb(255, 255, 255);"><tspan  dy="0">Database</tspan></text><text  id="v-874" font-size="17" xml:space="preserve" y="0.8em" text-anchor="middle" font-family="Open Sans" fill="#ffffff" transform="matrix(1,0,0,1,225,170.60000610351562)" style="fill: rgb(255, 255, 255);"><tspan  dy="0">[Container: DynamoDB]</tspan></text><text  id="v-875" font-size="24" xml:space="preserve" y="0.8em" text-anchor="middle" font-family="Open Sans" fill="#ffffff" transform="matrix(1,0,0,1,225,201.89999389648438)" style="fill: rgb(255, 255, 255);"><tspan  dy="0">Stores LPA IDs.</tspan></text><g  id="v-876" font-weight="normal" text-anchor="middle" color="#ffffff" transform="matrix(1,0,0,1,222.5,241.89999389648438)" style="fill: rgb(255, 255, 255);" display="none"><g ></g><g ></g><g ></g><g ></g></g><image  id="v-877"></image></g></g></g><g ></g><g ></g><g ></g></g></svg>